<COLLADA xmlns="http://www.collada.org/2005/11/COLLADASchema" version="1.4.1">
  <asset>
    <created>2026-09-25T14:22:25.852201</created>
    <modified>2026-09-25T14:22:25.852204</modified>
    <up_axis>Y_UP</up_axis>
  </asset>
  <library_effects>
    <effect id="8a0fe7f234e9416bb1def54556726f40" name="8a0fe7f234e9416bb1def54556726f40">
      <profile_COMMON>
        <technique sid="common">
          <phong>
            <ambient>
              <color>0.0 0.0 0.0 1.0</color>
            </ambient>
            <diffuse>
              <color>1.0 1.0 1.0 1.0</color>
            </diffuse>
            <specular>
              <color>1.0 1.0 1.0 1.0</color>
            </specular>
            <shininess>
              <float>197.99999600000007</float>
            </shininess>
            <reflective>
              <color>0.0 0.0 0.0 1.0</color>
            </reflective>
            <reflectivity>
              <float>0.0</float>
            </reflectivity>
            <transparent>
              <color>0.0 0.0 0.0 1.0</color>
            </transparent>
            <transparency>
              <float>1.0</float>
            </transparency>
          </phong>
        </technique>
        <extra>
          <technique profile="GOOGLEEARTH">
            <double_sided>0</double_sided>
          </technique>
        </extra>
      </profile_COMMON>
    </effect>
  </library_effects>
  <library_geometries>
    <geometry id="44c7f54e840440799e851e82504d5c9d" name="05e22c1a912945878a5b750cf09fe330">
      <mesh>
        <source id="verts-array">
          <float_array count="1563" id="verts-array-array">0.009329155 0.000697709 0.007116224 0.009377337 -0.0004999827 0.007235199 0.009377337 -0.0004999827 -0.007275182 0.009201939 0.002610536 0.00689956 0.009209186 0.002611081 -0.006942909 0.009199099 0.00279772 -0.006922974 0.009153784 0.003334611 0.006817545 0.008955723 0.005136678 -0.006617014 0.008877727 0.005695439 -0.006534992 0.008877728 0.005695439 0.00649501 0.008863971 0.005713128 -0.006813124 0.008972998 0.004970653 -0.006638732 0.0088623 0.005748234 -0.006534992 0.008863971 0.005713128 -0.006813124 0.008815678 0.005769671 -0.007057349 0.008711092 0.005134681 -0.007907797 0.008762128 0.005832366 -0.00732815 0.009199099 0.00279772 -0.006922974 0.008574818 0.006048393 -0.00776634 0.008997457 0.002182743 -0.008292677 0.009239803 0.002044618 -0.007003409 0.009377337 -0.0004999827 -0.007275182 0.009309196 -0.0004999827 -0.007965264 0.009179382 -0.0004999827 -0.008440017 0.009119242 -0.0004999827 -0.00856924 0.008667628 0.002235548 -0.008915613 0.00888752 -0.0004999827 -0.00906715 0.008795432 -0.0004999827 -0.00920034 0.00860651 -0.0004999827 -0.009473579 0.008380651 0.005188463 -0.008524027 0.008547374 0.006080044 -0.007830544 0.008231469 0.006442401 -0.008266582 0.008179632 0.006501948 -0.008311599 0.008208794 0.002271764 -0.00947124 0.00833152 -0.0004999827 -0.00975462 0.008123773 -0.0004999827 -0.009966938 0.007924554 0.005216013 -0.009074763 0.007807274 0.006929703 -0.00863497 0.007608391 0.007156863 -0.008739907 0.007367624 0.005214821 -0.009523554 0.007261364 0.007553239 -0.008923015 0.006894348 0.007973283 -0.009018516 0.007646258 0.002288582 -0.009922134 0.007777591 -0.0004999827 -0.01021764 0.007725873 -0.0004999827 -0.01025509 0.006746881 0.005185875 -0.009846394 0.007018072 0.002285591 -0.01024387 0.007147604 -0.0004999827 -0.01053951 0.006251457 0.008128723 -0.009312726 0.006712927 0.008180917 -0.009065725 0.006584395 0.008328022 -0.009099171 0.006071175 0.008916289 -0.009121622 0.005039848 0.007914592 -0.009580086 0.005879403 0.009136101 -0.009130011 0.005476519 0.009598766 -0.009072166 0.005093634 0.007666184 -0.009638252 0.004713646 0.009421123 -0.009227321 0.005447308 0.005522798 -0.01002649 0.004704124 0.009465102 -0.009217023 0.005152347 0.009971037 -0.009025623 0.004332326 0.01091691 -0.008754053 0.005496361 0.005065086 -0.0100941 0.005667094 0.003471972 -0.01032944 0.005745443 0.002229468 -0.01047721 0.005839859 0.0007321725 -0.01065528 0.007107051 -0.0004999827 -0.01055945 0.006640597 -0.0004999827 -0.01069764 0.005886676 -0.0004999827 -0.01078016 0.0015 -0.0004999827 -0.01078016 0.0009138246 -0.0004421586 -0.01077453 0.0003488801 -0.0002703477 -0.01075769 -0.0001685761 6.856314e-06 -0.01073009 -0.0006241177 0.0003814987 -0.01069194 -0.0009956114 0.0008351083 -0.01064433 -0.00127215 0.001353204 -0.01058787 -0.001442352 0.001914731 -0.01052394 -0.001499999 0.002500018 -0.01045398 -0.001499999 0.005865576 -0.009969771 0.005390903 0.005864633 -0.00996457 0.005093634 0.007666184 -0.009638252 0.004704124 0.009465102 -0.009217023 -0.001499999 0.009479246 -0.009213143 0.004700548 0.009479065 -0.00921257 0.004332326 0.01091691 -0.008754053 0.003804779 0.01155448 -0.008500889 -0.001499999 0.01102954 -0.008711843 -0.0006459111 0.01207357 -0.008256885 0.003377628 0.01207147 -0.00825323 -0.0004811947 0.01227492 -0.008169144 0.0003328923 0.01330437 -0.007593597 0.002919663 0.01262576 -0.007987703 0.002059305 0.01366978 -0.007354105 0.001014832 0.01420277 -0.006963177 0.001621279 0.01420249 -0.006941544 0.001022376 0.01421308 -0.00695462 0.001300368 0.01459278 -0.00663929 -0.0005432678 0.01219905 -0.00820221 -0.001499999 0.01174874 -0.008368486 -0.001499999 0.01213029 -0.008098817 -0.001101929 0.01260051 -0.007880996 -0.001499999 0.01240611 -0.00790388 -0.0004811947 0.01227492 -0.008169144 -0.001499999 0.01281033 -0.007497531 0.0003328923 0.01330437 -0.007593597 -0.0001214978 0.01374726 -0.007186736 -0.001499999 0.01291772 -0.007389588 0.0004185573 0.01341723 -0.007514404 -0.001499999 0.01300585 -0.007266065 0.001014832 0.01420277 -0.006963177 0.001206294 0.01469887 -0.006529219 0.001300368 0.01459278 -0.00663929 -0.0006410004 0.01394195 -0.006682762 -0.001499999 0.0132539 -0.006918434 -0.001499999 0.01352399 -0.006353024 0.0008071635 0.01487208 -0.0062739 0.001092376 0.01482734 -0.006395928 0.000927793 0.01500854 -0.006119539 0.0003013959 0.01497541 -0.00582165 0.0008214322 0.01512564 -0.005940924 0.0006285239 0.01532779 -0.005435058 -0.001064966 0.0139679 -0.006065224 -0.001499999 0.01352528 -0.006350341 -0.001499999 0.01361028 -0.006067242 -0.001499999 0.01367838 -0.005516327 -0.001350085 0.0138283 -0.005407683 -0.0005174272 0.01466096 -0.004804251 -0.001499999 0.01367838 0.005476343 -0.0001266777 0.01492799 -0.005287319 0.0005886206 0.01536961 -0.005330419 0.0004411654 0.0155076 -0.004667708 0.0004396351 0.01550838 -0.004650847 -0.0004409703 0.01473741 -0.004722119 0.0003673004 0.01554568 -0.003853854 -0.0005168884 0.01466149 0.004763808 0.0003673006 0.01554568 0.003813872 0.0004362344 0.01559066 0.003813872 0.0004362342 0.01559066 -0.003853854 0.0004030634 0.01552724 -0.004247896 0.0004331804 0.01558867 -0.003853854 0.0004556856 0.01558039 -0.004248573 0.0005174459 0.01560407 0.003813872 0.0005017585 0.01554238 -0.004638219 0.0004411654 0.0155076 -0.004667708 0.0005886206 0.01536961 -0.005330419 0.0005174456 0.01560407 -0.003853854 0.0005364842 0.01559041 -0.004244595 0.0006725371 0.01536897 -0.005395925 0.0006158211 0.0153411 -0.005401748 0.0008214322 0.01512564 -0.005940924 0.0005784063 0.01554864 -0.004629771 0.0005971795 0.01558364 -0.003853854 0.0005971798 0.01558364 0.003813872 0.0006000479 0.01558138 -0.003853854 0.0006619309 0.01553282 0.003813872 0.0006511949 0.01552547 -0.004617511 0.0006619307 0.01553282 -0.003853854 0.0007397877 0.01537072 -0.005377611 0.0009552593 0.01505699 -0.006076694 0.0009071154 0.0150313 -0.006084815 0.001092376 0.01482734 -0.006395928 0.0007165385 0.01546774 -0.004602407 0.0007288386 0.01545308 -0.004771014 0.00134626 0.01460768 -0.006612408 0.0008015734 0.0153496 -0.00535317 0.0008740747 0.01528 -0.005310217 0.0009906194 0.0151411 -0.0057429 0.001011672 0.01505847 -0.006048593 0.001061457 0.01504265 -0.0060133 0.001117434 0.01498997 -0.005947276 0.001453577 0.01458937 -0.006489006 0.007009129 0.007968524 0.008821127 0.001426172 0.01460591 -0.006534022 0.00161519 0.01439677 -0.00665347 0.001416329 0.01461184 -0.00655019 0.001389535 0.01461244 -0.006576472 0.002108021 0.01375548 -0.007253428 0.001362742 0.01461304 -0.006602752 0.002062757 0.01374479 -0.007292744 0.002017084 0.01372113 -0.007314338 0.002059305 0.01366978 -0.007354105 0.002144693 0.01375256 -0.007204859 0.002182134 0.01372111 -0.00711347 0.002916224 0.01284626 -0.007709087 0.002893925 0.01285848 -0.007764257 0.00285751 0.01285732 -0.007816684 0.004463375 0.01097997 -0.008627384 0.004485535 0.01097602 -0.008566494 0.004455165 0.01098143 -0.00864994 0.007821648 0.0070002 0.008462708 0.004427827 0.01097088 -0.008683408 0.002811466 0.01284193 -0.007858148 0.002765885 0.01281236 -0.007874455 0.002919663 0.01262576 -0.007987703 0.003804779 0.01155448 -0.008500889 0.004400489 0.01096034 -0.008716875 0.004382064 0.0109486 -0.008726925 0.005152347 0.009971037 -0.009025623 0.004382374 0.01094879 -0.008726755 0.005668035 0.009453038 -0.009078645 0.005629925 0.009422597 -0.009094192 0.004428343 0.01097108 -0.008682775 0.005879403 0.009136101 -0.009130011 0.005701202 0.009475976 -0.009034196 0.006322071 0.008692116 -0.009097827 0.006290362 0.008665049 -0.009112034 0.00446379 0.0109799 -0.008626244 0.006584395 0.008328022 -0.009099171 0.005723373 0.009488604 -0.008979908 0.006980581 0.007926542 -0.008991566 0.006955456 0.007903346 -0.009002617 0.007261364 0.007553239 -0.008923015 0.00634715 0.008714686 -0.009055025 0.007622586 0.007180301 -0.008730242 0.007605202 0.007160507 -0.008741591 0.007807274 0.006929703 -0.00863497 0.008206442 0.006471151 -0.008288315 0.006997125 0.007948836 -0.00895201 0.007630487 0.00720256 -0.008696005 0.006362278 0.008729177 -0.009004737 0.007005153 0.007965091 -0.008907234 0.005732371 0.009490103 -0.008905849 0.006366374 0.008734528 -0.008904335 0.005606922 0.009639608 -0.008906149 0.006817459 0.008196945 -0.008903257 0.006999836 0.007979597 -0.008833127 0.007621876 0.00723828 -0.008593934 0.007768772 0.007063216 -0.008537447 0.008212251 0.006516766 -0.008242454 0.008231469 0.006442401 -0.008266582 0.008547374 0.006080044 -0.007830544 0.008182095 0.006570635 -0.008148369 0.008396676 0.006314909 -0.007946377 0.008676233 0.00596919 -0.007514797 0.00867507 0.005932772 -0.007531813 0.008762128 0.005832366 -0.00732815 0.008636309 0.006029326 -0.007465752 0.008717938 0.005932044 -0.00730203 0.008813485 0.005806772 -0.00704841 0.008759767 0.005882193 -0.007023362 0.008833074 0.00579483 -0.006534992 0.008862301 0.005748234 0.00649501 0.008833075 0.00579483 0.00649501 0.008828126 0.005755623 0.007016134 0.008965486 0.004944931 0.006597544 0.008827273 0.005756659 0.007025103 0.00881471 0.005805318 0.007002026 0.008827273 0.005756659 0.007025103 0.008697412 0.005907142 0.007474874 0.008767894 0.005872509 0.006980437 0.008740178 0.00590554 0.007186854 0.008677891 0.005967233 0.007470709 0.008454907 0.006186265 0.007940864 0.008631904 0.006034575 0.007415877 0.008406308 0.00630343 0.007893059 0.008217744 0.006510288 0.008196594 0.008209253 0.006467985 0.008237845 0.008188128 0.006563446 0.008105638 0.008140434 0.006546909 0.008321044 0.007633504 0.007199005 0.008654326 0.007623773 0.007236021 0.008549995 0.007625645 0.007176746 0.008688531 0.007681112 0.007074256 0.0086764 0.007610723 0.007154565 0.008708351 0.007096528 0.00774123 0.008941746 0.007009846 0.007959515 0.008866017 0.00698539 0.007920954 0.008950272 0.006961253 0.007896154 0.008969315 0.006426165 0.008508962 0.009078366 0.00700187 0.007943245 0.008910747 0.006372792 0.008716681 0.008965008 0.006375434 0.008723731 0.008863842 0.005855639 0.009343199 0.008898879 0.006357788 0.008702155 0.009015246 0.005732107 0.009478222 0.008941 0.005743018 0.009477415 0.008868271 0.004485535 0.01097602 0.008526512 0.006332838 0.008679601 0.009058003 0.006301412 0.008652003 0.009077228 0.0056559 0.00939214 0.009071337 0.005710033 0.009465568 0.008995241 0.00446379 0.0109799 0.008586261 0.004455166 0.01098143 0.008609957 0.005676973 0.009442635 0.009039677 0.005637923 0.00941284 0.009067874 0.004428344 0.01097108 0.008642793 0.004981922 0.01016816 0.008941505 0.00440049 0.01096034 0.008676893 0.004382375 0.01094879 0.008686773 0.004332326 0.01091691 0.008714071 0.002813146 0.01283991 0.007819305 0.004382065 0.0109486 0.008686943 0.003279316 0.01219042 0.008170817 0.002769756 0.01280797 0.007827288 0.004427828 0.01097088 0.008643425 0.002332521 0.01333787 0.007532519 0.002859192 0.01285531 0.007777838 0.004463375 0.01097997 0.008587401 0.002064159 0.0137431 0.007253966 0.002022255 0.01371493 0.00726451 0.001566489 0.01426881 0.006870817 0.00134626 0.01460768 0.006572426 0.001300368 0.01459278 0.006599308 0.001362743 0.01461304 0.00656277 0.001566489 0.01426881 0.006870817 0.0006483754 0.0137151 0.007282908 0.002332521 0.01333787 0.007532519 0.002979449 0.01255384 0.007968657 -0.0001253577 0.01272037 0.007896333 -0.0002557598 0.01255841 0.007976125 -0.0009314855 0.01171916 0.008389589 0.003279316 0.01219042 0.008170817 0.004462631 0.01043072 0.008884994 0.004531032 0.01015148 0.008965479 -0.001499999 0.01102954 0.00867186 -0.001499999 0.0101541 0.008974665 -0.001499999 0.006348473 0.009846611 0.004822992 0.00895958 0.009309012 0.005193313 0.007142925 0.009700946 -0.001499999 0.01111653 0.008637896 -0.0009314855 0.01171916 0.008389589 -0.001499999 0.01183631 0.008276067 -0.001499999 0.01213917 0.00805754 -0.0005433527 0.01220122 0.008152097 0.005313269 0.006347059 0.00983844 0.005501537 0.005097985 0.01005423 -0.001499999 0.002500018 0.010414 -0.001102112 0.01260627 0.007836453 -0.001499999 0.01239779 0.00787094 -0.0001253577 0.01272037 0.007896333 -0.001499999 0.01281436 0.007450423 -0.0001230867 0.01375087 0.007142821 0.0004172654 0.01341798 0.007466136 -0.001499999 0.01293554 0.007328095 0.0006483754 0.0137151 0.007282908 0.001300368 0.01459278 0.006599308 -0.001499999 0.01301713 0.007215792 0.001209973 0.01469419 0.006483602 -0.0006450898 0.01394513 0.006634571 -0.001499999 0.01320662 0.006954975 -0.001499999 0.01350864 0.006355616 -0.001499999 0.01352686 0.00629725 0.0008056508 0.01487517 0.006229602 0.0009778537 0.0149546 0.006186489 0.0009249811 0.01501185 0.006079876 0.0002973557 0.01497758 0.005773805 0.0007117586 0.01524272 0.005649928 0.000628905 0.01532662 0.005382834 -0.001069685 0.01396853 0.006012398 -0.001499999 0.01360725 0.006039685 -0.00134848 0.0138299 0.005366525 -0.0001317182 0.01492749 0.005235701 0.0005207148 0.01543619 0.005034062 0.0004463188 0.01549872 0.004588659 -0.0004394276 0.01473896 0.004680587 0.0003997956 0.01553783 0.004310129 0.0003993314 0.01556658 0.003813872 0.0003997956 0.01553783 0.004310129 0.0004677375 0.01552892 0.004602833 0.0004482419 0.01549711 0.004600173 0.0005207148 0.01543619 0.005034062 0.0005025441 0.01554218 0.004600506 0.000540506 0.01554893 0.00459684 0.0006737689 0.01536816 0.005358553 0.0006222478 0.01533336 0.005361372 0.0007117586 0.01524272 0.005649928 0.0005796598 0.01554819 0.004591935 0.0006012155 0.01558047 0.003813872 0.0009562942 0.01505627 0.006037841 0.000908609 0.01502958 0.006046862 0.0009778537 0.0149546 0.006186489 0.001346543 0.01460778 0.00657226 0.0007413844 0.0153697 0.005340021 0.001012995 0.0150576 0.00600947 0.0006526602 0.01552447 0.004579529 0.0008033221 0.01534814 0.005315333 0.0007421948 0.01543716 0.004557081 0.0008015703 0.01536641 0.005106871 0.001144136 0.01495815 0.006021942 0.0008646524 0.01529123 0.005275378 0.001453577 0.01458937 0.006449024 0.001109029 0.01499999 0.005928161 0.001062891 0.01504146 0.005973878 0.001144138 0.01495815 0.006021945 0.001426679 0.0146056 0.006493207 0.001416329 0.01461184 0.006510207 0.002770993 0.01301934 0.007570182 0.002146095 0.01375088 0.007166067 0.002185242 0.01371741 0.007071692 0.001426172 0.01460591 0.00649404 0.002895606 0.01285647 0.007725403 0.002921598 0.01283985 0.007654186 0.002109424 0.0137538 0.007214646 0.001389536 0.01461244 0.006536489 0.007664662 -0.0004999827 0.0102523 0.00703965 -0.0004999827 0.01054389 0.006572945 -0.0004999827 0.01067195 0.005886677 -0.0004999827 0.01074018 0.008062648 -0.0004999827 0.00997699 0.008556662 -0.0004999827 0.009494388 0.008840906 -0.0004999827 0.009103693 0.009148873 -0.0004999827 0.008483722 0.009289106 -0.0004999827 0.008019272 0.009376001 -0.0004999827 0.007332575 0.009377337 -0.0004999827 0.007235199 0.001500001 -0.0004999827 0.01074018 0.0015 -0.0004999827 -0.01078016 0.009377337 -0.0004999827 -0.007275182 0.0009138246 -0.0004421586 -0.01077453 0.005886676 -0.0004999827 -0.01078016 0.0006201692 -0.000368065 0.01072731 0.009309196 -0.0004999827 -0.007965264 0.0003566375 -0.0002601743 0.01071666 0.009179382 -0.0004999827 -0.008440017 0.0003520449 -0.0002713102 -0.01075778 0.006640597 -0.0004999827 -0.01069764 0.0001159447 -0.0001616337 0.01070694 0.007107051 -0.0004999827 -0.01055945 -0.0003450809 0.0001345004 0.01067722 0.00888752 -0.0004999827 -0.00906715 0.0003488801 -0.0002703477 -0.01075769 0.00860651 -0.0004999827 -0.009473579 -0.0001685761 6.856314e-06 -0.01073009 0.008123773 -0.0004999827 -0.009966938 0.007725873 -0.0004999827 -0.01025509 -0.0006139265 0.0003865804 0.01065132 -0.0006210742 0.0003789956 -0.0106922 -0.0007419804 0.0005066488 0.01063899 -0.0006241177 0.0003814987 -0.01069194 -0.001066347 0.0009463583 0.01059242 -0.0009956114 0.0008351083 -0.01064433 -0.001265572 0.001354923 0.01054756 -0.001271523 0.001352029 -0.010588 -0.001304489 0.001434732 0.01053879 -0.001450847 0.00195919 0.01047877 -0.001442352 0.001914731 -0.01052394 -0.001499999 0.002500018 0.010414 -0.001499999 0.002500018 -0.01045398 -0.001499999 0.006348473 0.009846611 -0.001499999 0.0101541 0.008974665 -0.001499999 0.01102954 0.00867186 -0.001499999 0.005865576 -0.009969771 -0.001499999 0.01111653 0.008637896 -0.001499999 0.009479246 -0.009213143 -0.001499999 0.01367838 0.005476343 -0.001499999 0.01183631 0.008276067 -0.001499999 0.01239779 0.00787094 -0.001499999 0.01293554 0.007328095 -0.001499999 0.01320662 0.006954975 -0.001499999 0.01350864 0.006355616 -0.001499999 0.01360725 0.006039685 -0.001499999 0.01367838 -0.005516327 -0.001499999 0.01102954 -0.008711843 -0.001499999 0.01361028 -0.006067242 -0.001499999 0.01352528 -0.006350341 -0.001499999 0.0132539 -0.006918434 -0.001499999 0.01291772 -0.007389588 -0.001499999 0.01174874 -0.008368486 -0.001499999 0.01240611 -0.00790388 0.004981922 0.01016816 0.008941505 0.004332326 0.01091691 0.008714071 0.004462631 0.01043072 0.008884994 0.00471227 0.009411594 0.009178731 0.005480616 0.009593964 0.009037571 0.004822992 0.00895958 0.009309012 0.0056559 0.00939214 0.009071337 0.006080652 0.008905124 0.009075213 0.005039657 0.0078967 0.009538323 0.006262423 0.008112913 0.009273195 0.006426165 0.008508962 0.009078366 0.006727151 0.00816426 0.009017025 0.006911849 0.007952734 0.008979384 0.006757449 0.005162884 0.009807017 0.005506762 0.005043699 0.01006185 0.005721913 0.002808534 0.01037564 0.007381313 0.005191348 0.009480282 0.007096528 0.00774123 0.008941746 0.007631509 0.00713085 0.008698916 0.001369719 -0.000480449 0.01073827 -0.001450847 0.00195919 0.01047877 -0.001304489 0.001434732 0.01053879 -0.001066347 0.0009463583 0.01059242 -0.0007419804 0.0005066488 0.01063899 -0.0003450809 0.0001345004 0.01067722 0.0001159447 -0.0001616337 0.01070694 0.0006201692 -0.000368065 0.01072731 0.005885706 -0.0004804759 0.01073803 0.001500001 -0.0004999827 0.01074018 0.005886677 -0.0004999827 0.01074018 0.005751429 0.002215851 0.01044094 0.006572945 -0.0004999827 0.01067195 0.007026747 0.002271098 0.01020261 0.00703965 -0.0004999827 0.01054389 0.007152909 -0.0004999827 0.01049105 0.007664662 -0.0004999827 0.0102523 0.00765801 0.002273717 0.009876927 0.007786631 -0.0004999827 0.01016792 0.008062648 -0.0004999827 0.00997699 0.00822208 0.002256313 0.009420842 0.008344062 -0.0004999827 0.009702075 0.008556662 -0.0004999827 0.009494388 0.008810945 -0.0004999827 0.009144874 0.007939847 0.005191757 0.009026363 0.007681112 0.007074256 0.0086764 0.008140434 0.006546909 0.008321044 0.008193423 0.006486139 0.008256983 0.008395552 0.005163193 0.008470017 0.008454907 0.006186265 0.007940864 0.008579288 0.006043102 0.007701857 0.008680423 0.00221936 0.008859552 0.008840906 -0.0004999827 0.009103693 0.009136073 -0.0004999827 0.008509489 0.008723572 0.005108305 0.007848597 0.008697412 0.005907142 0.007474874 0.009153784 0.003334611 0.006817545 0.009007717 0.002165777 0.008231399 0.009240568 0.00202971 0.00696535 0.009329155 0.000697709 0.007116224 0.009148873 -0.0004999827 0.008483722 0.009289106 -0.0004999827 0.008019272 0.009376001 -0.0004999827 0.007332575 0.009377337 -0.0004999827 0.007235199</float_array>
          <technique_common>
            <accessor count="521" source="#verts-array-array" stride="3">
              <param type="float" name="X"/>
              <param type="float" name="Y"/>
              <param type="float" name="Z"/>
            </accessor>
          </technique_common>
        </source>
        <source id="normals-array">
          <float_array count="1563" id="normals-array-array">0.9985954 0.05297314 -0.001065302 0.9991918 0.04019652 0 0.9985275 0.05424735 0.0002506224 0.9978608 0.06537139 -0.0006515907 0.9985455 0.05391327 0.0005248678 0.9970706 0.07648641 -5.3467e-05 0.9959811 0.08956305 0.0003757003 0.9912703 0.1213167 -0.05162712 0.9778207 0.2088596 -0.01562961 0.9796079 0.1981259 0.03338319 0.9851023 0.1106854 -0.1316135 0.9772337 0.1146913 -0.1784943 0.912686 0.4084136 -0.01423481 0.8752002 0.480578 -0.05540261 0.9849407 0.1175475 -0.126785 0.9303631 0.1498892 -0.3346009 0.9660534 0.1195873 -0.2289972 0.9764809 0.104928 -0.1883484 0.9222765 0.1540759 -0.3544949 0.9384789 0.1078347 -0.3280687 0.9822911 0.08005744 -0.1693962 0.9931104 0.06415048 -0.09806324 0.9796862 0.07589352 -0.1856208 0.9352422 0.08233153 -0.3443015 0.9014343 0.08968722 -0.4235237 0.830352 0.1258439 -0.5428434 0.8634012 0.09683177 -0.4951383 0.818646 0.09716096 -0.5660198 0.7663791 0.1012037 -0.6343666 0.821449 0.1796606 -0.5412427 0.9039775 0.1440846 -0.402572 0.8032076 0.2100084 -0.5574532 0.7659905 0.2113155 -0.6071279 0.6989967 0.1379629 -0.7016907 0.7109866 0.1026064 -0.6956795 0.646681 0.1090001 -0.7549322 0.6905659 0.1926923 -0.6971286 0.6854512 0.2246547 -0.6925943 0.6376764 0.222711 -0.7374066 0.5319853 0.1984447 -0.8231715 0.5325251 0.2331598 -0.8136667 0.4572327 0.2252346 -0.8603532 0.5391554 0.1414676 -0.8302399 0.5827952 0.1127284 -0.8047621 0.5117714 0.1145583 -0.8514496 0.3202797 0.1895304 -0.9281698 0.3209725 0.1364578 -0.9372065 0.3752299 0.1797 -0.9093461 0.3028942 0.2468605 -0.9204972 0.4463005 0.1911895 -0.874221 0.4188688 0.2389647 -0.8760393 0.2457875 0.2295028 -0.9417627 0.1633754 0.2539522 -0.9533188 0.1913898 0.2208303 -0.9563493 0.1409035 0.2481055 -0.958431 0.1780789 0.2279315 -0.957254 0.1357217 0.2536418 -0.9577293 0.09294336 0.1752402 -0.9801288 0.1109945 0.2693142 -0.9566348 0.08939943 0.2821571 -0.9551938 0.04931396 0.3148904 -0.9478461 0.17662 0.1623377 -0.9707996 0.09353844 0.1403225 -0.9856775 0.1734621 0.1270831 -0.9766068 0.0916984 0.1169949 -0.9888901 0.3793223 0.3226666 -0.8671798 0.2240846 0.1785622 -0.9580718 0.05530058 0.1027605 -0.9931677 0.0002409623 0.1001827 -0.994969 0.0001052396 0.09792842 -0.9951935 0.0005149722 0.09996253 -0.9949911 0.001394596 0.1028536 -0.9946955 0.002690985 0.1075967 -0.994191 0.003781102 0.1091492 -0.9940182 0.002787888 0.1120726 -0.9936961 0.001705556 0.1162655 -0.9932167 -3.468876e-05 0.1302569 -0.9914803 -0.001538424 0.1737655 -0.9847859 0.000766985 0.1783556 -0.9839658 -0.006275267 0.2032478 -0.9791072 -0.005014753 0.2556292 -0.9667619 0.002053985 0.2587281 -0.965948 9.685947e-05 0.303836 -0.9527244 0.09602764 0.3980891 -0.9123068 -0.007953323 0.3762238 -0.9264947 -0.006351619 0.3581045 -0.9336599 -0.001869513 0.4021645 -0.9155655 -0.003423364 0.4348793 -0.9004822 0.002786609 0.4266405 -0.904417 0.001181781 0.5112012 -0.8594603 -0.02302194 0.4350004 -0.9001359 0.005917766 0.5521523 -0.8337222 0.009630436 0.6035856 -0.79724 0.02807442 0.6263856 -0.7790076 0.02807556 0.6263462 -0.7790393 0.1183006 0.7064946 -0.697761 -0.1228257 0.4975146 -0.8587159 -0.07564008 0.4828493 -0.8724306 -0.1503469 0.5514482 -0.820549 -0.2040676 0.5976316 -0.7753663 -0.2539703 0.6085528 -0.751773 -0.1208627 0.5186527 -0.8463992 -0.3011476 0.6731376 -0.6754228 -0.112598 0.5962836 -0.794838 -0.2183015 0.6749267 -0.7048535 -0.3328888 0.7060301 -0.6250652 -0.09475309 0.6190116 -0.7796451 -0.386275 0.7415299 -0.5485663 -0.1289399 0.6746746 -0.7267659 -0.151089 0.6714377 -0.7254953 -0.09353494 0.675716 -0.7312039 -0.4176157 0.7537303 -0.5074326 -0.4692949 0.7471267 -0.4707058 -0.5231151 0.7664116 -0.3727785 -0.2267825 0.7618329 -0.6067786 -0.2159444 0.6383726 -0.7388156 -0.2518731 0.7795749 -0.5734308 -0.4189951 0.7945753 -0.4394237 -0.3460748 0.7340934 -0.5842423 -0.4444491 0.786256 -0.4292628 -0.5827919 0.7693884 -0.2615246 -0.5617409 0.7610617 -0.3243953 -0.6257181 0.7620993 -0.1663776 -0.6680903 0.7402747 -0.07515759 -0.6545489 0.7455244 -0.1255355 -0.679653 0.7310243 -0.06062377 -0.6695633 0.7390068 0.07452526 -0.5838595 0.7790129 -0.228576 -0.5004992 0.7725251 -0.3907756 -0.6191993 0.7701844 -0.1529974 -0.6533216 0.7508351 -0.09704395 -0.6480749 0.7545367 -0.1033117 -0.6223238 0.7819296 -0.03604392 -0.6802033 0.7306052 0.05949365 -0.6260549 0.7795085 0.02053546 -0.3640075 0.9304899 0.04107549 -0.3646164 0.9309192 -0.02107846 -0.6860156 0.7205901 -0.1006602 -0.5558778 0.8285468 -0.06715701 -0.441237 0.8924079 -0.09443568 0.03978431 0.9987031 0.03176899 -0.2623401 0.9497564 -0.1707059 -0.4146435 0.8885923 -0.1961492 -0.2364433 0.9227295 -0.3044091 0.04173663 0.999024 -0.01446343 0.15063 0.9864285 -0.06534118 -0.1344403 0.9189564 -0.3707357 -0.353044 0.8146216 -0.4601647 0.03004879 0.9075126 -0.4189487 0.1281406 0.9815708 -0.1417701 0.446251 0.8947049 -0.01905684 0.4421489 0.8965848 0.02529769 0.6085233 0.7927896 -0.03440995 0.6936159 0.7203312 0.004460996 0.4873064 0.870819 -0.06485981 0.6935823 0.7203641 -0.004379467 0.216389 0.9414197 -0.2586596 -0.0149798 0.8381093 -0.5452967 -0.2766814 0.7197972 -0.6366628 0.2958801 0.8286076 -0.4752519 0.6641325 0.7474321 -0.01653152 0.6917576 0.7214772 -0.03069486 0.1511767 0.7428191 -0.6522004 0.5420587 0.8306893 -0.1269952 0.7037102 0.7094599 -0.03819113 0.6903099 0.7205553 -0.06536282 0.3267539 0.8680096 -0.3738865 0.5900371 0.7855144 -0.1866099 0.721781 0.6893483 -0.06189624 0.7232491 0.6861458 -0.07819707 0.7723661 0.632324 0.06014169 0.674762 0.7219482 -0.153255 0.7229914 0.6840141 -0.09699569 0.5647196 0.7693565 -0.2986342 0.4350704 0.7914553 -0.429316 0.4600535 0.7350322 -0.4980748 0.2862599 0.784096 -0.5506803 0.2104613 0.6828521 -0.6995849 0.03886486 0.6316248 -0.7742995 0.1398807 0.6212917 -0.7709929 0.6570928 0.7162608 -0.2349458 0.7391937 0.6695843 -0.07245375 0.7446078 0.6634739 -0.07322262 0.6535591 0.7008759 -0.2857158 0.4751483 0.6908386 -0.5449552 0.697483 0.6848681 -0.2108866 0.7411198 0.6618032 -0.1129508 0.6146528 0.6638417 -0.4260472 0.7990373 0.5857888 0.135613 0.4654419 0.6602189 -0.5894699 0.1901021 0.602714 -0.774982 -0.02014859 0.5065235 -0.8619907 0.2598522 0.5887742 -0.76539 0.4275985 0.6444628 -0.6338984 0.3439793 0.5524743 -0.7592433 0.1622298 0.4993236 -0.8510919 0.5430393 0.6027407 -0.5846469 0.2242265 0.4227176 -0.8780845 0.3710404 0.4229654 -0.8266978 0.1722064 0.2684522 -0.9477755 0.5241238 0.589447 -0.6146921 0.4966318 0.4485205 -0.7430924 0.5983731 0.5809437 -0.5517735 0.4631298 0.3615969 -0.8091715 0.2606826 0.1913117 -0.9462793 0.720665 0.6568624 -0.2217516 0.6212642 0.4465809 -0.6438915 0.7192544 0.638275 -0.2743686 0.5527536 0.2950747 -0.7793551 0.3372782 0.08146104 -0.9378739 0.7335491 0.4561763 -0.5037945 0.6691187 0.5410512 -0.5094543 0.6823565 0.2617633 -0.6825464 0.5077999 0.04721864 -0.86018 0.817733 0.4845332 -0.3107093 0.8080935 0.3676499 -0.4602374 0.7298451 0.5123335 -0.4525931 0.7933476 0.5165159 -0.3221969 0.748721 0.6200483 -0.2344288 0.7725623 0.5981824 -0.2128972 0.7607083 0.6406952 -0.1040799 0.7644701 0.6413356 -0.06537686 0.7489569 0.6540381 -0.1062907 0.7683572 0.634438 -0.08435416 0.7749069 0.6284684 -0.0674291 0.7823924 0.6059219 -0.1439473 0.7961427 0.59205 -0.1250342 0.8328451 0.4774839 -0.279961 0.8551235 0.3461997 -0.385888 0.8613964 0.4709153 -0.190355 0.7961103 0.5987674 -0.08766966 0.8708299 0.4369561 -0.2252214 0.9066149 0.3696812 -0.2034336 0.9331693 0.1272595 -0.3361548 0.9193409 0.3656238 -0.1453671 0.8098064 0.5839427 -0.05678528 0.8206266 0.5698573 -0.04283247 0.9381195 0.3369436 -0.08000495 0.8116619 0.5838687 -0.01738607 0.8103416 0.5859305 -0.005651024 0.9144818 0.4040983 0.02067693 0.8103223 0.5859585 0.005524089 0.9593481 0.2759465 0.05920108 0.9809582 0.1158301 0.1558986 0.9801045 0.1078089 0.1666503 0.9022381 0.4257958 0.06829575 0.9466015 0.3001806 0.1176316 0.9262604 0.3153575 0.2063767 0.8176738 0.5754092 0.01771439 0.8208954 0.5695509 0.0417427 0.8811709 0.4461705 0.1564277 0.8601905 0.4708188 0.1959644 0.8059597 0.5899696 0.04863041 0.8730566 0.4296658 0.2305632 0.8477574 0.4492036 0.281999 0.8517258 0.2680743 0.4502214 0.7976229 0.596561 0.08895291 0.8211696 0.4164996 0.3901392 0.7924989 0.5198804 0.3188571 0.7835092 0.605035 0.1415838 0.7179882 0.3520284 0.6004739 0.7842111 0.3650276 0.5017648 0.620363 0.247664 0.7441857 0.6988662 0.402764 0.5910729 0.7710635 0.5934777 0.2307493 0.5935188 0.3621395 0.7187423 0.4433546 0.2331072 0.8655043 0.5653562 0.3939078 0.7247131 0.7304762 0.5119388 0.4520212 0.749845 0.6189769 0.2336665 0.7662412 0.6393011 0.06456406 0.7613068 0.643324 0.08090843 0.6700003 0.5407418 0.5086236 0.7153908 0.6429116 0.2736434 0.7498415 0.6531925 0.105249 0.7414729 0.6614307 0.1128159 0.4854225 0.3988383 0.7780058 0.3111544 0.2786036 0.9086049 0.3643508 0.3788826 0.8507035 0.5989652 0.5808067 0.5512752 0.7206806 0.6568255 0.2218102 0.6147274 0.6637163 0.4261349 0.4373741 0.4693155 0.7671029 0.3070183 0.4102981 0.8587172 0.5243859 0.5891263 0.6147761 0.5507337 0.607739 0.5721413 0.3441378 0.5522404 0.7593417 0.2239724 0.4283195 0.8754306 0.09157421 0.4130466 0.9060942 0.1364953 0.5621288 0.8157085 0.1522174 0.5027588 0.8509192 0.4370471 0.6494675 0.6222394 -0.1273055 0.3998785 0.9076841 0.4654763 0.6601873 0.5894782 0.2408854 0.6510291 0.7198162 0.4751756 0.6907785 0.5450076 0.6977869 0.6843365 0.2116057 0.1278252 0.6413142 0.7565559 -0.1243942 0.5048111 0.85422 0.2965189 0.7307461 0.6148875 0.1806164 0.7054065 0.6854046 0.09334796 0.7217557 0.6858242 0.2862639 0.7814931 0.5543659 -0.01012681 0.6077543 0.7940605 0.001442105 0.5488105 0.8359455 -0.01734172 0.4967498 0.8677205 -0.007152205 0.481609 0.876357 0.004445662 0.4669227 0.884287 0.002694932 0.4401899 0.8979007 0.005566815 0.391132 0.9203178 -0.0004426772 0.4243183 0.905513 -0.01816428 0.29167 0.9563465 -0.01864488 0.2696699 0.9627723 0.008222639 0.3501277 0.9366659 0.001583878 0.2755094 0.9612971 -0.002829174 0.1855862 0.9826239 -0.01824967 0.2438325 0.9696456 0.09302014 0.2033819 0.9746707 -0.003168362 0.3835182 0.9235279 -0.09154067 0.4985964 0.8619872 -0.05982581 0.5296132 0.8461269 -0.1222196 0.5430749 0.8307418 -0.1147763 0.5098342 0.8525817 0.001217168 0.170416 0.9853715 0.09237401 0.1644725 0.9820468 0.001556864 0.1291258 0.991627 -0.2043358 0.598759 0.7744253 -0.2557794 0.6119688 0.748379 -0.1162431 0.5653043 0.8166508 -0.3047346 0.6741613 0.6727877 -0.2189543 0.6727215 0.7067565 -0.1183442 0.5862729 0.801423 -0.3333866 0.705204 0.6257321 -0.1098686 0.6326586 0.7665976 -0.1298511 0.6833543 0.7184466 -0.3815685 0.7393959 0.5547064 -0.1371223 0.6898107 0.7108858 -0.4199001 0.7546771 0.5041293 -0.4598475 0.7431845 0.4860217 -0.5114093 0.7981941 0.3183499 -0.544901 0.7882137 0.2860104 -0.2339892 0.7525657 0.6155436 -0.1865402 0.7492754 0.635444 -0.2807018 0.7965492 0.5354585 -0.4218273 0.7949014 0.4361118 -0.37045 0.7997389 0.472424 -0.4649182 0.8044016 0.3698501 -0.5855343 0.7681832 0.2589288 -0.6267115 0.7596043 0.1738795 -0.6556797 0.7449293 0.1231439 -0.5838701 0.7807571 0.2225176 -0.5304849 0.7959603 0.291604 -0.6097432 0.7700197 0.1878377 -0.6469209 0.7554924 0.1035601 -0.6562824 0.7449545 0.119734 -0.5350122 0.8421173 0.06782625 -0.1602834 0.9849555 0.06459 -0.6085317 0.7694214 0.1941129 -0.8412894 0.4979455 0.2104338 -0.1316458 0.9587394 0.2519685 -0.2462565 0.9552022 0.1641537 -0.0643038 0.98559 0.1564527 -0.2027361 0.9094901 0.3629405 -0.4986952 0.7706274 0.3967826 0.03967806 0.9169801 0.3969548 0.1739239 0.97667 0.1259612 0.6085965 0.7927532 0.03394929 -0.03204976 0.8543067 0.5187802 -0.318465 0.7602756 0.566181 0.1614625 0.8241823 0.5428198 0.1017034 0.7919305 0.6020819 0.2205935 0.9407006 0.2577225 0.3303401 0.8686593 0.3691971 0.5108669 0.8573577 0.06287044 0.5406409 0.830626 0.1332959 0.7001529 0.7138079 0.01625571 0.6930936 0.7200645 0.03359213 0.7660422 0.6427903 1.350169e-06 0.6987092 0.7131628 0.05660633 0.7240165 0.6851354 0.07993528 0.6981637 0.7136581 0.05709232 0.5807219 0.7926567 0.1856269 0.6700433 0.7302169 0.1335112 0.6608157 0.7373445 0.1401631 0.5647988 0.7692528 0.2987514 0.739325 0.6686908 0.07906443 0.6574158 0.7164779 0.2333751 0.7393566 0.6697562 0.06912603 0.6907316 0.7036259 0.1667347 0.6611045 0.6983858 0.2742228 0.7347738 0.6689931 0.1120517 0.4600621 0.7349778 0.498147 0.4676222 0.7550489 0.4595984 0 -1 0 0 -1 0 0 -1 0 0 -1 0 0 -1 0 0 -1 0 0 -1 0 0 -1 0 0 -1 0 0 -1 0 0 -1 0 -0.07356981 -0.9972898 0.0006778144 -0.04899436 -0.9987991 1.590224e-09 0 -1 0 -0.1944987 -0.9809027 0.0002821571 0 -1 0 -0.2645695 -0.9643666 -0.000290154 0 -1 0 -0.3781052 -0.9257624 -0.0007199738 0 -1 0 -0.2933129 -0.9560063 0.004422971 0 -1 0 -0.4598022 -0.8880212 -0.0005201223 0 -1 0 -0.6117396 -0.7910578 -0.001451967 0 -1 0 -0.3789504 -0.9254023 0.005209748 0 -1 0 -0.5531838 -0.8330587 0.0009384092 0 -1 0 0 -1 0 -0.6835597 -0.7298945 -0.0004245848 -0.635289 -0.7722741 0.0007423088 -0.7447358 -0.6673594 -0.0002058386 -0.7044758 -0.7097275 0.0008799185 -0.8524504 -0.5228075 -0.000825861 -0.828715 -0.5596705 0.0005363901 -0.8986825 -0.4385997 -0.0002149279 -0.9214586 -0.3884766 0.0002689668 -0.932784 -0.3604358 -4.455608e-05 -0.9823537 -0.1870324 -0.0003347554 -0.9793264 -0.2022863 0.0001212467 -0.998787 -0.04923877 -0.0001127633 -0.9985848 -0.05318192 3.332107e-08 -1 -8.426877e-09 3.600499e-08 -1 -5.341923e-09 3.206422e-08 -1 9.346858e-09 2.751992e-08 -1 -5.461987e-09 3.277053e-08 -1 1.476233e-08 2.484529e-08 -1 1.31489e-08 5.581585e-08 -1 3.895191e-08 2.119358e-08 -1 0 0 -1 0 0 -1 0 0 -1 0 0 -1 0 0 -1 0 0 -1 -7.615713e-08 1.942053e-07 -1 -6.762223e-08 2.108847e-07 -1 -7.773352e-07 8.025841e-07 -1 6.761275e-08 -2.215883e-08 -1 8.861915e-08 -4.500132e-08 -1 1.268037e-07 -9.571844e-08 -1 3.661704e-07 -4.372724e-07 -1 0 0 0.06920535 0.2855221 0.9558702 0.07450241 0.348453 0.9343607 0.06518311 0.3314939 0.9412029 0.09563978 0.2845689 0.9538729 0.1201375 0.2725485 0.9546121 0.1561108 0.2521896 0.9550025 0.1628813 0.2154126 0.9628432 0.2041198 0.2443107 0.9479701 0.1705531 0.247301 0.9538102 0.3032188 0.2494185 0.9197004 0.3795074 0.2773024 0.8826537 0.4485039 0.2383301 0.8614192 0.4465368 0.233114 0.863865 0.3222404 0.1881311 0.9277757 0.1831662 0.1539488 0.9709531 0.09392787 0.1319644 0.9867943 0.5348994 0.1969836 0.8216326 0.4838898 0.2322435 0.8437498 0.6067607 0.227435 0.7616526 0.001370734 0.1083282 0.9941142 0.01182694 0.1192765 0.9927906 0.008654134 0.1155392 0.9932652 0.005851092 0.1115716 0.9937392 0.003580416 0.1076585 0.9941815 0.001920449 0.1040893 0.9945661 0.0008420102 0.10108 0.9948779 0.000261001 0.09881744 0.9951055 2.640094e-05 0.109532 0.9939833 5.427297e-05 0.09751211 0.9952343 0.05058662 0.111895 0.9924316 0.170901 0.1247558 0.9773581 0.1826506 0.119833 0.9758477 0.3251486 0.1405174 0.9351648 0.3407017 0.1164856 0.9329274 0.4200963 0.1128534 0.900435 0.4941403 0.1134152 0.8619526 0.5424484 0.1417613 0.828042 0.5653288 0.1119536 0.817233 0.6302358 0.1090738 0.7687039 0.7034945 0.1360078 0.6975653 0.6950534 0.1033556 0.7114903 0.7539177 0.1088045 0.6478963 0.8016375 0.1059704 0.5883431 0.694712 0.1908818 0.6934979 0.6427559 0.2245039 0.7324363 0.7811698 0.1933395 0.5936274 0.823435 0.1823368 0.5373156 0.8251826 0.1792252 0.5356789 0.8758896 0.1806066 0.4474356 0.9047857 0.1771578 0.3872699 0.8328614 0.1240108 0.5394101 0.8498628 0.09666633 0.5180626 0.9118561 0.1499717 0.3821346 0.93184 0.1503666 0.3302486 0.9404483 0.1688308 0.2950478 0.9756912 0.1148731 0.1866304 0.9413389 0.1040353 0.3210262 0.98155 0.08469631 0.1714236 0.9803445 0.07905151 0.1807635 0.8675172 0.3118589 0.3875022 0.9600033 0.1473899 0.2380543 0.9957275 0.05264943 0.0758601 0.9990422 0.04155256 0.01371149</float_array>
          <technique_common>
            <accessor count="521" source="#normals-array-array" stride="3">
              <param type="float" name="X"/>
              <param type="float" name="Y"/>
              <param type="float" name="Z"/>
            </accessor>
          </technique_common>
        </source>
        <source id="texcoords-array">
          <float_array count="1042" id="texcoords-array-array">0 1 0 1 0 1 0 1 0 1 0 1 0 1 0 1 0 1 0 1 0 1 0 1 0 1 0 1 0 1 0 1 0 1 0 1 0 1 0 1 0 1 0 1 0 1 0 1 0 1 0 1 0 1 0 1 0 1 0 1 0 1 0 1 0 1 0 1 0 1 0 1 0 1 0 1 0 1 0 1 0 1 0 1 0 1 0 1 0 1 0 1 0 1 0 1 0 1 0 1 0 1 0 1 0 1 0 1 0 1 0 1 0 1 0 1 0 1 0 1 0 1 0 1 0 1 0 1 0 1 0 1 0 1 0 1 0 1 0 1 0 1 0 1 0 1 0 1 0 1 0 1 0 1 0 1 0 1 0 1 0 1 0 1 0 1 0 1 0 1 0 1 0 1 0 1 0 1 0 1 0 1 0 1 0 1 0 1 0 1 0 1 0 1 0 1 0 1 0 1 0 1 0 1 0 1 0 1 0 1 0 1 0 1 0 1 0 1 0 1 0 1 0 1 0 1 0 1 0 1 0 1 0 1 0 1 0 1 0 1 0 1 0 1 0 1 0 1 0 1 0 1 0 1 0 1 0 1 0 1 0 1 0 1 0 1 0 1 0 1 0 1 0 1 0 1 0 1 0 1 0 1 0 1 0 1 0 1 0 1 0 1 0 1 0 1 0 1 0 1 0 1 0 1 0 1 0 1 0 1 0 1 0 1 0 1 0 1 0 1 0 1 0 1 0 1 0 1 0 1 0 1 0 1 0 1 0 1 0 1 0 1 0 1 0 1 0 1 0 1 0 1 0 1 0 1 0 1 0 1 0 1 0 1 0 1 0 1 0 1 0 1 0 1 0 1 0 1 0 1 0 1 0 1 0 1 0 1 0 1 0 1 0 1 0 1 0 1 0 1 0 1 0 1 0 1 0 1 0 1 0 1 0 1 0 1 0 1 0 1 0 1 0 1 0 1 0 1 0 1 0 1 0 1 0 1 0 1 0 1 0 1 0 1 0 1 0 1 0 1 0 1 0 1 0 1 0 1 0 1 0 1 0 1 0 1 0 1 0 1 0 1 0 1 0 1 0 1 0 1 0 1 0 1 0 1 0 1 0 1 0 1 0 1 0 1 0 1 0 1 0 1 0 1 0 1 0 1 0 1 0 1 0 1 0 1 0 1 0 1 0 1 0 1 0 1 0 1 0 1 0 1 0 1 0 1 0 1 0 1 0 1 0 1 0 1 0 1 0 1 0 1 0 1 0 1 0 1 0 1 0 1 0 1 0 1 0 1 0 1 0 1 0 1 0 1 0 1 0 1 0 1 0 1 0 1 0 1 0 1 0 1 0 1 0 1 0 1 0 1 0 1 0 1 0 1 0 1 0 1 0 1 0 1 0 1 0 1 0 1 0 1 0 1 0 1 0 1 0 1 0 1 0 1 0 1 0 1 0 1 0 1 0 1 0 1 0 1 0 1 0 1 0 1 0 1 0 1 0 1 0 1 0 1 0 1 0 1 0 1 0 1 0 1 0 1 0 1 0 1 0 1 0 1 0 1 0 1 0 1 0 1 0 1 0 1 0 1 0 1 0 1 0 1 0 1 0 1 0 1 0 1 0 1 0 1 0 1 0 1 0 1 0 1 0 1 0 1 0 1 0 1 0 1 0 1 0 1 0 1 0 1 0 1 0 1 0 1 0 1 0 1 0 1 0 1 0 1 0 1 0 1 0 1 0 1 0 1 0 1 0 1 0 1 0 1 0 1 0 1 0 1 0 1 0 1 0 1 0 1 0 1 0 1 0 1 0 1 0 1 0 1 0 1 0 1 0 1 0 1 0 1 0 1 0 1 0 1 0 1 0 1 0 1 0 1 0 1 0 1 0 1 0 1 0 1 0 1 0 1 0 1 0 1 0 1 0 1 0 1 0 1 0 1 0 1 0 1 0 1 0 1 0 1 0 1 0 1 0 1 0 1 0 1 0 1 0 1 0 1 0 1 0 1 0 1 0 1 0 1 0 1 0 1 0 1 0 1 0 1 0 1 0 1 0 1 0 1 0 1 0 1 0 1 0 1 0 1 0 1 0 1 0 1 0 1 0 1 0 1 0 1 0 1 0 1 0 1 0 1 0 1 0 1 0 1 0 1 0 1 0 1 0 1 0 1 0 1 0 1 0 1 0 1 0 1 0 1 0 1 0 1 0 1 0 1 0 1 0 1 0 1 0 1 0 1 0 1 0 1 0 1 0 1 0 1 0 1 0 1 0 1 0 1 0 1 0 1 0 1 0 1 0 1 0 1 0 1 0 1 0 1 0 1 0 1 0 1 0 1 0 1 0 1 0 1 0 1 0 1 0 1</float_array>
          <technique_common>
            <accessor count="521" source="#texcoords-array-array" stride="2">
              <param type="float" name="S"/>
              <param type="float" name="T"/>
            </accessor>
          </technique_common>
        </source>
        <vertices id="verts-array-vertices">
          <input semantic="POSITION" source="#verts-array"/>
        </vertices>
        <triangles count="669" material="material0">
          <input offset="0" semantic="VERTEX" source="#verts-array-vertices"/>
          <input offset="1" semantic="NORMAL" source="#normals-array"/>
          <input offset="2" semantic="TEXCOORD" source="#texcoords-array"/>
          <p>0 0 0 1 1 1 2 2 2 3 3 3 0 0 0 2 2 2 2 2 2 4 4 4 3 3 3 3 3 3 4 4 4 5 5 5 6 6 6 3 3 3 5 5 5 5 5 5 7 7 7 6 6 6 6 6 6 7 7 7 8 8 8 8 8 8 9 9 9 6 6 6 10 10 10 8 8 8 7 7 7 7 7 7 11 11 11 10 10 10 9 9 9 8 8 8 12 12 12 12 12 12 8 8 8 13 13 13 13 13 13 14 14 14 12 12 12 10 10 10 11 11 11 15 15 15 15 15 15 16 16 16 10 10 10 15 15 15 11 11 11 17 17 17 15 15 15 18 18 18 16 16 16 17 17 17 19 19 19 15 15 15 17 17 17 20 20 20 19 19 19 20 20 20 21 21 21 22 22 22 22 22 22 19 19 19 20 20 20 19 19 19 22 22 22 23 23 23 23 23 23 24 24 24 19 19 19 25 25 25 19 19 19 24 24 24 15 15 15 19 19 19 25 25 25 24 24 24 26 26 26 25 25 25 26 26 26 27 27 27 25 25 25 25 25 25 27 27 27 28 28 28 18 18 18 15 15 15 29 29 29 25 25 25 29 29 29 15 15 15 29 29 29 30 30 30 18 18 18 31 31 31 30 30 30 29 29 29 29 29 29 32 32 32 31 31 31 28 28 28 33 33 33 25 25 25 29 29 29 25 25 25 33 33 33 28 28 28 34 34 34 33 33 33 33 33 33 34 34 34 35 35 35 32 32 32 29 29 29 36 36 36 33 33 33 36 36 36 29 29 29 36 36 36 37 37 37 32 32 32 36 36 36 38 38 38 37 37 37 38 38 38 36 36 36 39 39 39 39 39 39 36 36 36 33 33 33 39 39 39 40 40 40 38 38 38 39 39 39 41 41 41 40 40 40 35 35 35 42 42 42 33 33 33 33 33 33 42 42 42 39 39 39 35 35 35 43 43 43 42 42 42 42 42 42 43 43 43 44 44 44 41 41 41 39 39 39 45 45 45 45 45 45 39 39 39 42 42 42 46 46 46 42 42 42 44 44 44 42 42 42 46 46 46 45 45 45 44 44 44 47 47 47 46 46 46 45 45 45 48 48 48 41 41 41 48 48 48 49 49 49 41 41 41 50 50 50 49 49 49 48 48 48 48 48 48 51 51 51 50 50 50 51 51 51 48 48 48 52 52 52 52 52 52 53 53 53 51 51 51 54 54 54 53 53 53 52 52 52 55 55 55 52 52 52 48 48 48 52 52 52 56 56 56 54 54 54 57 57 57 55 55 55 48 48 48 54 54 54 56 56 56 58 58 58 48 48 48 45 45 45 57 57 57 58 58 58 59 59 59 54 54 54 58 58 58 60 60 60 59 59 59 45 45 45 61 61 61 57 57 57 62 62 62 61 61 61 45 45 45 45 45 45 46 46 46 62 62 62 46 46 46 63 63 63 62 62 62 64 64 64 63 63 63 46 46 46 46 46 46 47 47 47 64 64 64 64 64 64 47 47 47 65 65 65 64 64 64 65 65 65 66 66 66 66 66 66 67 67 67 64 64 64 64 64 64 67 67 67 68 68 68 68 68 68 69 69 69 70 70 70 70 70 70 71 71 71 68 68 68 71 71 71 72 72 72 68 68 68 68 68 68 72 72 72 64 64 64 62 62 62 64 64 64 72 72 72 72 72 72 73 73 73 62 62 62 73 73 73 74 74 74 62 62 62 74 74 74 75 75 75 62 62 62 75 75 75 76 76 76 62 62 62 57 57 57 62 62 62 76 76 76 76 76 76 77 77 77 57 57 57 77 77 77 78 78 78 57 57 57 79 79 79 78 78 78 77 77 77 80 80 80 79 79 79 77 77 77 77 77 77 81 81 81 80 80 80 81 81 81 82 82 82 80 80 80 83 83 83 82 82 82 81 81 81 81 81 81 84 84 84 83 83 83 84 84 84 81 81 81 85 85 85 84 84 84 85 85 85 86 86 86 86 86 86 87 87 87 84 84 84 87 87 87 86 86 86 88 88 88 88 88 88 89 89 89 87 87 87 90 90 90 87 87 87 89 89 89 91 91 91 90 90 90 89 89 89 89 89 89 92 92 92 91 91 91 93 93 93 91 91 91 92 92 92 92 92 92 94 94 94 93 93 93 93 93 93 94 94 94 95 95 95 96 96 96 85 85 85 97 97 97 96 96 96 97 97 97 98 98 98 98 98 98 99 99 99 96 96 96 99 99 99 98 98 98 100 100 100 101 101 101 96 96 96 99 99 99 100 100 100 102 102 102 99 99 99 103 103 103 101 101 101 99 99 99 104 104 104 99 99 99 102 102 102 99 99 99 104 104 104 103 103 103 102 102 102 105 105 105 104 104 104 104 104 104 106 106 106 103 103 103 104 104 104 105 105 105 107 107 107 108 108 108 106 106 106 104 104 104 109 109 109 110 110 110 108 108 108 107 107 107 111 111 111 104 104 104 111 111 111 107 107 107 112 112 112 111 111 111 112 112 112 113 113 113 104 104 104 114 114 114 108 108 108 108 108 108 114 114 114 109 109 109 114 114 114 104 104 104 111 111 111 115 115 115 109 109 109 114 114 114 114 114 114 116 116 116 115 115 115 116 116 116 114 114 114 117 117 117 111 111 111 117 117 117 114 114 114 117 117 117 118 118 118 116 116 116 117 117 117 119 119 119 118 118 118 113 113 113 120 120 120 111 111 111 117 117 117 111 111 111 120 120 120 120 120 120 113 113 113 121 121 121 121 121 121 122 122 122 120 120 120 120 120 120 122 122 122 123 123 123 123 123 123 124 124 124 120 120 120 120 120 120 124 124 124 125 125 125 125 125 125 123 123 123 126 126 126 120 120 120 127 127 127 117 117 117 119 119 119 117 117 117 127 127 127 125 125 125 127 127 127 120 120 120 127 127 127 128 128 128 119 119 119 129 129 129 128 128 128 127 127 127 127 127 127 130 130 130 129 129 129 130 130 130 127 127 127 131 131 131 125 125 125 131 131 131 127 127 127 131 131 131 132 132 132 130 130 130 125 125 125 126 126 126 133 133 133 134 134 134 132 132 132 125 125 125 125 125 125 133 133 133 134 134 134 132 132 132 134 134 134 135 135 135 135 135 135 136 136 136 132 132 132 137 137 137 132 132 132 138 138 138 139 139 139 138 138 138 136 136 136 138 138 138 139 139 139 137 137 137 136 136 136 135 135 135 140 140 140 137 137 137 139 139 139 141 141 141 141 141 141 142 142 142 137 137 137 143 143 143 142 142 142 141 141 141 139 139 139 136 136 136 144 144 144 140 140 140 144 144 144 136 136 136 141 141 141 139 139 139 145 145 145 144 144 144 145 145 145 139 139 139 141 141 141 146 146 146 143 143 143 146 146 146 147 147 147 143 143 143 148 148 148 147 147 147 146 146 146 145 145 145 149 149 149 141 141 141 146 146 146 141 141 141 149 149 149 145 145 145 144 144 144 150 150 150 150 150 150 149 149 149 145 145 145 151 151 151 150 150 150 144 144 144 144 144 144 140 140 140 151 151 151 149 149 149 150 150 150 152 152 152 150 150 150 151 151 151 153 153 153 152 152 152 154 154 154 149 149 149 153 153 153 155 155 155 150 150 150 154 154 154 152 152 152 155 155 155 149 149 149 156 156 156 146 146 146 156 156 156 149 149 149 154 154 154 146 146 146 157 157 157 148 148 148 157 157 157 146 146 146 156 156 156 157 157 157 158 158 158 148 148 148 159 159 159 158 158 158 157 157 157 155 155 155 160 160 160 154 154 154 154 154 154 160 160 160 161 161 161 157 157 157 162 162 162 159 159 159 162 162 162 95 95 95 159 159 159 163 163 163 154 154 154 161 161 161 154 154 154 163 163 163 156 156 156 161 161 161 164 164 164 163 163 163 163 163 163 164 164 164 165 165 165 166 166 166 156 156 156 163 163 163 156 156 156 166 166 166 157 157 157 165 165 165 167 167 167 163 163 163 163 163 163 167 167 167 166 166 166 165 165 165 168 168 168 167 167 167 167 167 167 168 168 168 169 169 169 165 165 165 161 161 161 170 170 170 170 170 170 169 169 169 165 165 165 161 161 161 155 155 155 170 170 170 169 169 169 171 171 171 167 167 167 166 166 166 167 167 167 171 171 171 171 171 171 169 169 169 172 172 172 170 170 170 172 172 172 169 169 169 171 171 171 173 173 173 166 166 166 173 173 173 174 174 174 166 166 166 157 157 157 166 166 166 174 174 174 175 175 175 173 173 173 171 171 171 175 175 175 174 174 174 173 173 173 174 174 174 176 176 176 157 157 157 176 176 176 174 174 174 175 175 175 176 176 176 162 162 162 157 157 157 177 177 177 162 162 162 176 176 176 175 175 175 177 177 177 176 176 176 95 95 95 162 162 162 177 177 177 177 177 177 178 178 178 95 95 95 179 179 179 178 178 178 177 177 177 171 171 171 180 180 180 175 175 175 180 180 180 171 171 171 172 172 172 172 172 172 181 181 181 180 180 180 180 180 180 181 181 181 182 182 182 182 182 182 172 172 172 170 170 170 175 175 175 180 180 180 183 183 183 182 182 182 183 183 183 180 180 180 183 183 183 184 184 184 175 175 175 177 177 177 175 175 175 184 184 184 185 185 185 183 183 183 182 182 182 184 184 184 183 183 183 185 185 185 182 182 182 186 186 186 185 185 185 185 185 185 187 187 187 184 184 184 186 186 186 182 182 182 188 188 188 170 170 170 188 188 188 182 182 182 187 187 187 189 189 189 184 184 184 190 190 190 184 184 184 189 189 189 184 184 184 190 190 190 177 177 177 179 179 179 177 177 177 190 190 190 190 190 190 191 191 191 179 179 179 192 192 192 191 191 191 190 190 190 193 193 193 192 192 192 190 190 190 189 189 189 194 194 194 190 190 190 190 190 190 195 195 195 193 193 193 194 194 194 195 195 195 190 190 190 195 195 195 83 83 83 193 193 193 196 196 196 83 83 83 197 197 197 198 198 198 197 197 197 194 194 194 197 197 197 198 198 198 196 196 196 198 198 198 199 199 199 196 196 196 198 198 198 194 194 194 200 200 200 201 201 201 199 199 199 198 198 198 200 200 200 202 202 202 198 198 198 202 202 202 200 200 200 187 187 187 201 201 201 198 198 198 203 203 203 203 203 203 198 198 198 202 202 202 203 203 203 204 204 204 201 201 201 202 202 202 187 187 187 205 205 205 206 206 206 204 204 204 203 203 203 205 205 205 207 207 207 202 202 202 206 206 206 203 203 203 208 208 208 208 208 208 209 209 209 206 206 206 210 210 210 209 209 209 208 208 208 202 202 202 211 211 211 203 203 203 208 208 208 203 203 203 211 211 211 211 211 211 202 202 202 207 207 207 210 210 210 208 208 208 212 212 212 212 212 212 213 213 213 210 210 210 214 214 214 213 213 213 212 212 212 212 212 212 215 215 215 214 214 214 211 211 211 216 216 216 208 208 208 212 212 212 208 208 208 216 216 216 215 215 215 212 212 212 217 217 217 216 216 216 217 217 217 212 212 212 216 216 216 211 211 211 218 218 218 207 207 207 218 218 218 211 211 211 217 217 217 216 216 216 219 219 219 218 218 218 219 219 219 216 216 216 218 218 218 207 207 207 220 220 220 220 220 220 221 221 221 218 218 218 222 222 222 220 220 220 207 207 207 218 218 218 221 221 221 223 223 223 222 222 222 207 207 207 205 205 205 223 223 223 219 219 219 218 218 218 205 205 205 186 186 186 222 222 222 223 223 223 224 224 224 219 219 219 219 219 219 224 224 224 225 225 225 225 225 225 217 217 217 219 219 219 217 217 217 225 225 225 226 226 226 222 222 222 186 186 186 188 188 188 227 227 227 217 217 217 226 226 226 217 217 217 227 227 227 215 215 215 228 228 228 215 215 215 227 227 227 229 229 229 228 228 228 227 227 227 226 226 226 230 230 230 227 227 227 227 227 227 230 230 230 231 231 231 227 227 227 232 232 232 229 229 229 232 232 232 227 227 227 231 231 231 232 232 232 233 233 233 229 229 229 234 234 234 233 233 233 232 232 232 231 231 231 235 235 235 232 232 232 232 232 232 235 235 235 236 236 236 234 234 234 232 232 232 237 237 237 237 237 237 232 232 232 236 236 236 237 237 237 14 14 14 234 234 234 236 236 236 238 238 238 237 237 237 14 14 14 237 237 237 12 12 12 239 239 239 236 236 236 231 231 231 237 237 237 238 238 238 239 239 239 231 231 231 226 226 226 239 239 239 239 239 239 12 12 12 237 237 237 226 226 226 223 223 223 239 239 239 223 223 223 222 222 222 239 239 239 240 240 240 12 12 12 239 239 239 12 12 12 240 240 240 9 9 9 241 241 241 239 239 239 222 222 222 239 239 239 241 241 241 240 240 240 222 222 222 188 188 188 241 241 241 242 242 242 9 9 9 240 240 240 243 243 243 9 9 9 244 244 244 240 240 240 245 245 245 242 242 242 245 245 245 240 240 240 241 241 241 246 246 246 242 242 242 245 245 245 247 247 247 246 246 246 245 245 245 241 241 241 248 248 248 245 245 245 245 245 245 248 248 248 249 249 249 245 245 245 250 250 250 247 247 247 250 250 250 245 245 245 249 249 249 251 251 251 247 247 247 250 250 250 249 249 249 252 252 252 250 250 250 253 253 253 249 249 249 241 241 241 250 250 250 252 252 252 253 253 253 241 241 241 188 188 188 253 253 253 250 250 250 254 254 254 251 251 251 253 253 253 254 254 254 250 250 250 254 254 254 255 255 255 251 251 251 253 253 253 256 256 256 254 254 254 254 254 254 256 256 256 188 188 188 257 257 257 255 255 255 254 254 254 188 188 188 258 258 258 254 254 254 257 257 257 254 254 254 258 258 258 188 188 188 259 259 259 258 258 258 258 258 258 259 259 259 170 170 170 258 258 258 260 260 260 257 257 257 261 261 261 257 257 257 260 260 260 260 260 260 262 262 262 261 261 261 263 263 263 262 262 262 260 260 260 170 170 170 264 264 264 258 258 258 260 260 260 265 265 265 263 263 263 265 265 265 266 266 266 263 263 263 267 267 267 266 266 266 265 265 265 260 260 260 258 258 258 268 268 268 264 264 264 268 268 268 258 258 258 268 268 268 265 265 265 260 260 260 269 269 269 264 264 264 170 170 170 268 268 268 264 264 264 269 269 269 170 170 170 270 270 270 269 269 269 269 269 269 270 270 270 271 271 271 271 271 271 170 170 170 155 155 155 269 269 269 272 272 272 268 268 268 265 265 265 268 268 268 272 272 272 271 271 271 273 273 273 269 269 269 272 272 272 269 269 269 273 273 273 271 271 271 274 274 274 273 273 273 155 155 155 275 275 275 271 271 271 273 273 273 274 274 274 275 275 275 272 272 272 276 276 276 265 265 265 265 265 265 276 276 276 267 267 267 276 276 276 277 277 277 267 267 267 278 278 278 277 277 277 276 276 276 273 273 273 279 279 279 272 272 272 276 276 276 272 272 272 279 279 279 275 275 275 280 280 280 273 273 273 279 279 279 273 273 273 280 280 280 280 280 280 281 281 281 279 279 279 276 276 276 282 282 282 278 278 278 279 279 279 282 282 282 276 276 276 282 282 282 283 283 283 278 278 278 281 281 281 284 284 284 279 279 279 282 282 282 279 279 279 284 284 284 285 285 285 283 283 283 282 282 282 284 284 284 286 286 286 282 282 282 282 282 282 287 287 287 285 285 285 286 286 286 287 287 287 282 282 282 287 287 287 288 288 288 285 285 285 289 289 289 290 290 290 286 286 286 291 291 291 288 288 288 290 290 290 290 290 290 289 289 289 291 291 291 289 289 289 292 292 292 291 291 291 289 289 289 286 286 286 293 293 293 294 294 294 292 292 292 289 289 289 293 293 293 295 295 295 289 289 289 295 295 295 293 293 293 281 281 281 295 295 295 281 281 281 296 296 296 289 289 289 297 297 297 294 294 294 297 297 297 289 289 289 295 295 295 297 297 297 298 298 298 294 294 294 299 299 299 298 298 298 297 297 297 297 297 297 300 300 300 299 299 299 300 300 300 301 301 301 299 299 299 302 302 302 300 300 300 297 297 297 303 303 303 301 301 301 304 304 304 304 304 304 305 305 305 303 303 303 304 304 304 306 306 306 305 305 305 306 306 306 304 304 304 307 307 307 307 307 307 308 308 308 306 306 306 306 306 306 308 308 308 309 309 309 309 309 309 310 310 310 306 306 306 288 288 288 310 310 310 309 309 309 309 309 309 311 311 311 288 288 288 309 309 309 312 312 312 311 311 311 312 312 312 309 309 309 313 313 313 313 313 313 314 314 314 312 312 312 312 312 312 314 314 314 315 315 315 315 315 315 316 316 316 312 312 312 317 317 317 316 316 316 315 315 315 318 318 318 313 313 313 319 319 319 319 319 319 320 320 320 318 318 318 321 321 321 320 320 320 319 319 319 319 319 319 322 322 322 321 321 321 315 315 315 323 323 323 317 317 317 324 324 324 323 323 323 315 315 315 315 315 315 325 325 325 324 324 324 322 322 322 326 326 326 321 321 321 327 327 327 321 321 321 326 326 326 326 326 326 322 322 322 328 328 328 326 326 326 329 329 329 327 327 327 330 330 330 326 326 326 328 328 328 329 329 329 326 326 326 330 330 330 328 328 328 331 331 331 330 330 330 330 330 330 332 332 332 329 329 329 330 330 330 331 331 331 333 333 333 330 330 330 333 333 333 334 334 334 335 335 335 332 332 332 330 330 330 334 334 334 336 336 336 330 330 330 330 330 330 337 337 337 335 335 335 338 338 338 335 335 335 337 337 337 337 337 337 339 339 339 338 338 338 340 340 340 339 339 339 337 337 337 336 336 336 341 341 341 330 330 330 337 337 337 330 330 330 341 341 341 341 341 341 336 336 336 342 342 342 342 342 342 343 343 343 341 341 341 344 344 344 341 341 341 343 343 343 341 341 341 344 344 344 337 337 337 343 343 343 345 345 345 344 344 344 345 345 345 346 346 346 344 344 344 337 337 337 347 347 347 340 340 340 347 347 347 337 337 337 344 344 344 348 348 348 340 340 340 347 347 347 126 126 126 348 348 348 347 347 347 347 347 347 349 349 349 126 126 126 133 133 133 349 349 349 347 347 347 344 344 344 350 350 350 347 347 347 347 347 347 350 350 350 133 133 133 350 350 350 344 344 344 346 346 346 346 346 346 351 351 351 350 350 350 351 351 351 352 352 352 350 350 350 350 350 350 353 353 353 133 133 133 353 353 353 350 350 350 352 352 352 352 352 352 354 354 354 353 353 353 354 354 354 134 134 134 353 353 353 355 355 355 134 134 134 356 356 356 356 356 356 357 357 357 355 355 355 356 356 356 358 358 358 357 357 357 135 135 135 355 355 355 357 357 357 357 357 357 358 358 358 359 359 359 357 357 357 360 360 360 135 135 135 360 360 360 357 357 357 359 359 359 135 135 135 360 360 360 361 361 361 140 140 140 135 135 135 361 361 361 359 359 359 362 362 362 360 360 360 361 361 361 360 360 360 362 362 362 359 359 359 363 363 363 362 362 362 362 362 362 363 363 363 364 364 364 361 361 361 365 365 365 140 140 140 365 365 365 361 361 361 362 362 362 151 151 151 140 140 140 365 365 365 366 366 366 151 151 151 365 365 365 367 367 367 362 362 362 364 364 364 364 364 364 368 368 368 367 367 367 367 367 367 368 368 368 369 369 369 369 369 369 301 301 301 370 370 370 370 370 370 367 367 367 369 369 369 367 367 367 370 370 370 302 302 302 371 371 371 362 362 362 367 367 367 362 362 362 371 371 371 365 365 365 372 372 372 367 367 367 302 302 302 367 367 367 372 372 372 371 371 371 365 365 365 373 373 373 366 366 366 373 373 373 365 365 365 371 371 371 153 153 153 366 366 366 373 373 373 371 371 371 374 374 374 373 373 373 374 374 374 371 371 371 372 372 372 373 373 373 375 375 375 153 153 153 376 376 376 375 375 375 373 373 373 373 373 373 374 374 374 376 376 376 153 153 153 376 376 376 377 377 377 374 374 374 378 378 378 376 376 376 377 377 377 379 379 379 153 153 153 380 380 380 378 378 378 374 374 374 374 374 374 381 381 381 380 380 380 372 372 372 381 381 381 374 374 374 382 382 382 380 380 380 381 381 381 382 382 382 381 381 381 383 383 383 383 383 383 381 381 381 372 372 372 383 383 383 379 379 379 382 382 382 372 372 372 384 384 384 383 383 383 302 302 302 384 384 384 372 372 372 379 379 379 385 385 385 153 153 153 385 385 385 155 155 155 153 153 153 155 155 155 385 385 385 275 275 275 386 386 386 387 387 387 379 379 379 385 385 385 387 387 387 386 386 386 379 379 379 388 388 388 386 386 386 386 386 386 389 389 389 385 385 385 389 389 389 390 390 390 385 385 385 275 275 275 390 390 390 389 389 389 389 389 389 296 296 296 275 275 275 296 296 296 389 389 389 295 295 295 391 391 391 386 386 386 388 388 388 389 389 389 386 386 386 391 391 391 391 391 391 295 295 295 389 389 389 388 388 388 384 384 384 391 391 391 295 295 295 391 391 391 297 297 297 302 302 302 297 297 297 391 391 391 384 384 384 392 392 392 391 391 391 391 391 391 392 392 392 302 302 302 393 393 393 394 394 394 395 395 395 395 395 395 396 396 396 393 393 393 396 396 396 397 397 397 393 393 393 396 396 396 398 398 398 397 397 397 396 396 396 399 399 399 398 398 398 396 396 396 400 400 400 399 399 399 396 396 396 401 401 401 400 400 400 396 396 396 402 402 402 401 401 401 396 396 396 403 403 403 402 402 402 396 396 396 404 404 404 403 403 403 403 403 403 404 404 404 405 405 405 405 405 405 406 406 406 403 403 403 407 407 407 405 405 405 404 404 404 406 406 406 405 405 405 408 408 408 407 407 407 404 404 404 409 409 409 410 410 410 406 406 406 408 408 408 407 407 407 409 409 409 411 411 411 412 412 412 410 410 410 408 408 408 411 411 411 413 413 413 407 407 407 412 412 412 408 408 408 414 414 414 413 413 413 411 411 411 415 415 415 414 414 414 416 416 416 412 412 412 413 413 413 415 415 415 417 417 417 418 418 418 412 412 412 416 416 416 419 419 419 413 413 413 417 417 417 420 420 420 418 418 418 416 416 416 421 421 421 419 419 419 417 417 417 416 416 416 422 422 422 420 420 420 416 416 416 423 423 423 422 422 422 421 421 421 417 417 417 424 424 424 424 424 424 425 425 425 421 421 421 425 425 425 424 424 424 426 426 426 427 427 427 425 425 425 426 426 426 427 427 427 426 426 426 428 428 428 429 429 429 427 427 427 428 428 428 429 429 429 428 428 428 430 430 430 430 430 430 431 431 431 429 429 429 431 431 431 430 430 430 432 432 432 431 431 431 432 432 432 433 433 433 434 434 434 431 431 431 433 433 433 434 434 434 433 433 433 435 435 435 435 435 435 436 436 436 434 434 434 436 436 436 435 435 435 437 437 437 436 436 436 437 437 437 438 438 438 438 438 438 439 439 439 436 436 436 440 440 440 436 436 436 439 439 439 440 440 440 439 439 439 441 441 441 442 442 442 440 440 440 441 441 441 442 442 442 441 441 441 443 443 443 443 443 443 441 441 441 444 444 444 443 443 443 444 444 444 445 445 445 445 445 445 446 446 446 443 443 443 443 443 443 446 446 446 447 447 447 443 443 443 447 447 447 448 448 448 448 448 448 449 449 449 443 443 443 443 443 443 450 450 450 442 442 442 451 451 451 442 442 442 450 450 450 451 451 451 450 450 450 452 452 452 452 452 452 453 453 453 451 451 451 451 451 451 453 453 453 454 454 454 454 454 454 455 455 455 451 451 451 456 456 456 451 451 451 455 455 455 455 455 455 457 457 457 456 456 456 458 458 458 459 459 459 460 460 460 460 460 460 461 461 461 458 458 458 461 461 461 462 462 462 458 458 458 462 462 462 461 461 461 463 463 463 463 463 463 464 464 464 462 462 462 465 465 465 464 464 464 463 463 463 463 463 463 466 466 466 465 465 465 466 466 466 467 467 467 465 465 465 468 468 468 465 465 465 467 467 467 467 467 467 469 469 469 468 468 468 467 467 467 466 466 466 317 317 317 470 470 470 469 469 469 467 467 467 471 471 471 467 467 467 317 317 317 470 470 470 467 467 467 471 471 471 317 317 317 324 324 324 471 471 471 324 324 324 472 472 472 471 471 471 471 471 471 472 472 472 473 473 473 325 325 325 473 473 473 324 324 324 471 471 471 474 474 474 470 470 470 475 475 475 470 470 470 474 474 474 476 476 476 475 475 475 474 474 474 473 473 473 325 325 325 477 477 477 477 477 477 325 325 325 478 478 478 477 477 477 478 478 478 479 479 479 477 477 477 479 479 479 480 480 480 477 477 477 480 480 480 481 481 481 477 477 477 481 481 481 482 482 482 477 477 477 482 482 482 483 483 483 483 483 483 484 484 484 477 477 477 477 477 477 485 485 485 473 473 473 485 485 485 477 477 477 486 486 486 486 486 486 487 487 487 485 485 485 488 488 488 487 487 487 489 489 489 473 473 473 488 488 488 490 490 490 489 489 489 490 490 490 488 488 488 473 473 473 490 490 490 471 471 471 490 490 490 489 489 489 491 491 491 491 491 491 492 492 492 490 490 490 490 490 490 492 492 492 493 493 493 471 471 471 490 490 490 494 494 494 493 493 493 494 494 494 490 490 490 494 494 494 474 474 474 471 471 471 493 493 493 495 495 495 494 494 494 494 494 494 495 495 495 496 496 496 497 497 497 494 494 494 496 496 496 474 474 474 494 494 494 497 497 497 496 496 496 498 498 498 497 497 497 497 497 497 498 498 498 499 499 499 497 497 497 499 499 499 500 500 500 497 497 497 501 501 501 474 474 474 474 474 474 501 501 501 476 476 476 502 502 502 476 476 476 501 501 501 501 501 501 503 503 503 502 502 502 504 504 504 503 503 503 501 501 501 501 501 501 505 505 505 504 504 504 505 505 505 501 501 501 497 497 497 506 506 506 504 504 504 505 505 505 507 507 507 506 506 506 505 505 505 500 500 500 508 508 508 497 497 497 497 497 497 508 508 508 505 505 505 508 508 508 500 500 500 509 509 509 508 508 508 509 509 509 510 510 510 505 505 505 511 511 511 507 507 507 511 511 511 505 505 505 508 508 508 512 512 512 507 507 507 511 511 511 511 511 511 244 244 244 512 512 512 244 244 244 511 511 511 243 243 243 513 513 513 243 243 243 511 511 511 508 508 508 514 514 514 511 511 511 511 511 511 514 514 514 513 513 513 510 510 510 514 514 514 508 508 508 514 514 514 515 515 515 513 513 513 516 516 516 515 515 515 514 514 514 514 514 514 510 510 510 516 516 516 516 516 516 510 510 510 517 517 517 517 517 517 518 518 518 516 516 516 518 518 518 519 519 519 516 516 516 519 519 519 520 520 520 516 516 516</p>
        </triangles>
      </mesh>
    </geometry>
  </library_geometries>
  <library_materials>
    <material id="1f871848ffec4419a40cd5a77b410c1c" name="pbrmaterial">
      <instance_effect url="#8a0fe7f234e9416bb1def54556726f40"/>
    </material>
  </library_materials>
  <library_visual_scenes>
    <visual_scene id="scene">
      <node id="node0" name="node0">
        <instance_geometry url="#44c7f54e840440799e851e82504d5c9d">
          <bind_material>
            <technique_common>
              <instance_material symbol="material0" target="#1f871848ffec4419a40cd5a77b410c1c"/>
            </technique_common>
          </bind_material>
        </instance_geometry>
      </node>
    </visual_scene>
  </library_visual_scenes>
  <scene>
    <instance_visual_scene url="#scene"/>
  </scene>
</COLLADA>
