<COLLADA xmlns="http://www.collada.org/2005/11/COLLADASchema" version="1.4.1">
  <asset>
    <created>2026-09-25T14:22:25.691537</created>
    <modified>2026-09-25T14:22:25.691539</modified>
    <up_axis>Y_UP</up_axis>
  </asset>
  <library_effects>
    <effect id="c33de3089ae64a48bfcd1d395711f7be" name="c33de3089ae64a48bfcd1d395711f7be">
      <profile_COMMON>
        <technique sid="common">
          <phong>
            <ambient>
              <color>0.0 0.0 0.0 1.0</color>
            </ambient>
            <diffuse>
              <color>1.0 1.0 1.0 1.0</color>
            </diffuse>
            <specular>
              <color>1.0 1.0 1.0 1.0</color>
            </specular>
            <shininess>
              <float>197.99999600000007</float>
            </shininess>
            <reflective>
              <color>0.0 0.0 0.0 1.0</color>
            </reflective>
            <reflectivity>
              <float>0.0</float>
            </reflectivity>
            <transparent>
              <color>0.0 0.0 0.0 1.0</color>
            </transparent>
            <transparency>
              <float>1.0</float>
            </transparency>
          </phong>
        </technique>
        <extra>
          <technique profile="GOOGLEEARTH">
            <double_sided>0</double_sided>
          </technique>
        </extra>
      </profile_COMMON>
    </effect>
  </library_effects>
  <library_geometries>
    <geometry id="8093bf21b1d54734ac47f007e36da809" name="832fb78250434ae786c7b78bb83f5c36">
      <mesh>
        <source id="verts-array">
          <float_array count="1569" id="verts-array-array">-0.01027229 0.007664667 4.260552e-09 -0.01056388 0.007039654 4.281945e-09 -0.01069194 0.006572949 4.29792e-09 -0.01076017 0.005886681 4.32141e-09 -0.009996979 0.008062652 4.246929e-09 -0.009514377 0.008556666 4.23002e-09 -0.009123683 0.00884091 4.220291e-09 -0.008503711 0.009148878 4.209749e-09 -0.008039262 0.009289111 4.20495e-09 -0.007352565 0.009376005 4.201975e-09 -0.007255189 0.009377343 4.201929e-09 -0.01076017 0.001500006 4.471559e-09 0.01076017 0.001500006 4.471559e-09 0.007255191 0.009377343 4.201929e-09 0.01075454 0.0009138297 -5.78196e-05 0.01076017 0.005886681 4.32141e-09 -0.0107473 0.0006201736 -0.0001319132 0.007945274 0.009309201 4.204262e-09 -0.01073665 0.0003566419 -0.0002398038 0.008420027 0.009179387 4.208705e-09 0.01073779 0.0003520501 -0.000228668 0.01067765 0.006640602 4.295604e-09 -0.01072693 0.0001159492 -0.0003383445 0.01053946 0.007107056 4.279638e-09 -0.01069721 -0.0003450764 -0.0006344785 0.009047159 0.008887525 4.218695e-09 0.01073769 0.0003488853 -0.0002296305 0.009453589 0.008606516 4.228314e-09 0.0107101 -0.0001685709 -0.0005068345 0.009946948 0.008123779 4.244837e-09 0.0102351 0.007725878 4.258457e-09 -0.01067131 -0.000613922 -0.0008865586 0.01067221 -0.000621069 -0.0008789737 -0.01065898 -0.000741976 -0.001006627 0.01067195 -0.0006241125 -0.0008814767 -0.01061241 -0.001066343 -0.001446336 0.01062434 -0.0009956062 -0.001335086 -0.01056755 -0.001265568 -0.001854901 0.01056801 -0.001271517 -0.001852007 -0.01055878 -0.001304485 -0.00193471 -0.01049876 -0.001450843 -0.002459168 0.01050395 -0.001442347 -0.002414708 -0.01043398 -0.001499994 -0.002999995 0.01043399 -0.001499994 -0.002999995 -0.009866601 -0.001499994 -0.006848451 -0.008994654 -0.001499994 -0.01065408 -0.00869185 -0.001499994 -0.01152952 0.009949781 -0.001499994 -0.006365553 -0.008657885 -0.001499994 -0.01161651 0.009193153 -0.001499994 -0.009979224 -0.005496332 -0.001499994 -0.01417836 -0.008296057 -0.001499994 -0.01233629 -0.007890929 -0.001499994 -0.01289777 -0.007348085 -0.001499994 -0.01343551 -0.006974964 -0.001499994 -0.0137066 -0.006375606 -0.001499994 -0.01400862 -0.006059675 -0.001499994 -0.01410723 0.005496337 -0.001499993 -0.01417836 0.008691853 -0.001499994 -0.01152952 0.006047252 -0.001499994 -0.01411026 0.006330351 -0.001499994 -0.01402525 0.006898444 -0.001499994 -0.01375388 0.007369597 -0.001499994 -0.01341769 0.008348495 -0.001499994 -0.01224872 0.007883891 -0.001499994 -0.01290608 -0.008961495 0.004981927 -0.01066814 -0.008734061 0.004332331 -0.01141688 -0.008904984 0.004462636 -0.0109307 -0.009198721 0.004712275 -0.009911572 -0.009057562 0.005480621 -0.01009394 -0.009329001 0.004822996 -0.009459559 -0.009091327 0.005655905 -0.009892118 -0.009095203 0.006080657 -0.009405102 -0.009558313 0.005039662 -0.008396678 -0.009293185 0.006262428 -0.008612892 -0.009098356 0.00642617 -0.009008939 -0.009037015 0.006727156 -0.008664237 -0.009720935 0.005193317 -0.007642903 -0.008999375 0.006911853 -0.008452712 -0.009827007 0.006757454 -0.005662862 -0.01007422 0.005501541 -0.005597963 -0.009500272 0.007381318 -0.005691326 -0.008961736 0.007096533 -0.008241208 -0.008718906 0.007631513 -0.007630828 -0.01008184 0.005506767 -0.005543677 -0.01039563 0.005721918 -0.003308512 -0.009046352 0.007939852 -0.005691735 -0.008696391 0.007681117 -0.007574234 -0.008341034 0.008140438 -0.007046887 -0.008276973 0.008193428 -0.006986118 -0.0102226 0.007026752 -0.002771076 -0.01046093 0.005751433 -0.002715829 -0.008490006 0.008395556 -0.00566317 -0.007960853 0.008454911 -0.006686243 -0.007721847 0.008579292 -0.006543081 -0.01069194 0.006572949 4.29792e-09 -0.01076017 0.005886681 4.32141e-09 -0.01056388 0.007039654 4.281945e-09 -0.01051104 0.007152914 4.278069e-09 -0.01027229 0.007664667 4.260552e-09 -0.01076017 0.001500006 4.471559e-09 -0.01075802 0.00588571 -1.950251e-05 -0.01075826 0.001369724 -1.952922e-05 -0.009896916 0.007658015 -0.002773696 -0.01018792 0.007786636 4.256377e-09 -0.009996979 0.008062652 4.246929e-09 -0.01039563 0.005721918 -0.003308512 -0.009440831 0.008222084 -0.002756292 -0.009722065 0.008344066 4.237297e-09 -0.009514377 0.008556666 4.23002e-09 -0.009164864 0.00881095 4.221316e-09 -0.008879542 0.008680427 -0.002719339 -0.009123683 0.00884091 4.220291e-09 -0.008529478 0.009136078 4.210188e-09 -0.007868587 0.008723577 -0.005608283 -0.007494865 0.008697418 -0.006407119 -0.007045093 0.008827277 -0.006256638 -0.008251389 0.009007721 -0.002665756 -0.006617534 0.00896549 -0.005444909 -0.006515 0.008877733 -0.006195417 -0.006837535 0.009153789 -0.003834589 -0.006985341 0.009240573 -0.002529688 -0.007136214 0.00932916 -0.001197687 -0.008503711 0.009148878 4.209749e-09 -0.008039262 0.009289111 4.20495e-09 -0.007352565 0.009376005 4.201975e-09 -0.007255189 0.009377343 4.201929e-09 -0.007255189 0.009377343 4.201929e-09 0.007255191 0.009377343 4.201929e-09 -0.006919551 0.009201944 -0.003110514 0.006922918 0.009209191 -0.003111059 0.006902984 0.009199103 -0.003297698 -0.006837535 0.009153789 -0.003834589 0.006597023 0.008955727 -0.005636656 0.006515002 0.008877733 -0.006195417 0.006793133 0.008863976 -0.006213106 0.006618741 0.008973003 -0.00547063 0.006515002 0.008862305 -0.006248212 0.006793133 0.008863976 -0.006213106 0.007037359 0.008815682 -0.006269649 0.007887806 0.008711098 -0.005634659 0.007308159 0.008762133 -0.006332344 0.006902984 0.009199103 -0.003297698 0.00774635 0.008574824 -0.006548371 0.008272687 0.008997462 -0.002682721 0.006983419 0.009239808 -0.002544596 0.007255191 0.009377343 4.201929e-09 0.007945274 0.009309201 4.204262e-09 0.008420027 0.009179387 4.208705e-09 0.00854925 0.009119248 4.210764e-09 0.008895623 0.008667634 -0.002735527 0.009047159 0.008887525 4.218695e-09 0.009180349 0.008795436 4.221847e-09 0.009453589 0.008606516 4.228314e-09 0.008504037 0.008380657 -0.005688442 0.007810553 0.00854738 -0.006580023 0.008246591 0.008231475 -0.00694238 0.008291608 0.008179638 -0.007001927 0.009451249 0.008208798 -0.002771743 0.009734631 0.008331524 4.237727e-09 0.009946948 0.008123779 4.244837e-09 0.009054773 0.007924559 -0.00571599 0.008614979 0.007807279 -0.007429681 0.008719917 0.007608397 -0.007656841 0.009503564 0.007367629 -0.005714799 0.008903025 0.007261369 -0.008053217 0.008998526 0.006894353 -0.008473261 0.009902143 0.007646263 -0.00278856 0.01019765 0.007777596 4.256687e-09 0.0102351 0.007725878 4.258457e-09 0.009826404 0.006746886 -0.005685853 0.01022388 0.007018077 -0.002785569 0.01051952 0.007147609 4.27825e-09 0.009292735 0.006251463 -0.008628702 0.009045734 0.006712933 -0.008680895 0.00907918 0.0065844 -0.008827999 0.009101631 0.006071181 -0.009416266 0.01063529 0.005839863 -0.001232151 0.01053946 0.007107056 4.279638e-09 0.01067765 0.006640602 4.295604e-09 0.01076017 0.005886681 4.32141e-09 0.01045722 0.005745448 -0.002729446 0.01030945 0.005667099 -0.00397195 0.01007411 0.005496366 -0.005565064 0.0100065 0.005447314 -0.006022776 0.009618262 0.00509364 -0.008166161 0.009560095 0.005039854 -0.008414569 0.00911002 0.005879408 -0.00963608 0.009052176 0.005476524 -0.01009874 0.009207331 0.004713651 -0.009921102 0.009197033 0.004704129 -0.00996508 0.009005633 0.005152353 -0.01047101 0.008734063 0.004332331 -0.01141688 0.01063529 0.005839863 -0.001232151 0.01076017 0.001500006 4.471559e-09 0.01075454 0.0009138297 -5.78196e-05 0.01073769 0.0003488853 -0.0002296305 0.0107101 -0.0001685709 -0.0005068345 0.01067195 -0.0006241125 -0.0008814767 0.01030945 0.005667099 -0.00397195 0.01062434 -0.0009956062 -0.001335086 0.01056788 -0.001272145 -0.001853182 0.01050395 -0.001442347 -0.002414708 0.01043399 -0.001499994 -0.002999995 0.009949781 -0.001499994 -0.006365553 0.00994458 0.005390909 -0.006364611 0.009618262 0.00509364 -0.008166161 0.009197033 0.004704129 -0.00996508 0.009193153 -0.001499994 -0.009979224 0.00919258 0.004700553 -0.009979043 0.008734063 0.004332331 -0.01141688 0.008480898 0.003804784 -0.01205445 0.008691853 -0.001499994 -0.01152952 0.008236895 -0.0006459056 -0.01257355 0.00823324 0.003377633 -0.01257145 0.008149154 -0.0004811892 -0.0127749 0.007573607 0.0003328978 -0.01380435 0.007967712 0.002919668 -0.01312574 0.007334115 0.002059311 -0.01416976 0.006943187 0.001014838 -0.01470275 0.006921554 0.001621285 -0.01470247 0.00693463 0.001022381 -0.01471305 0.006619299 0.001300373 -0.01509276 0.008182219 -0.0005432623 -0.01269902 0.008348495 -0.001499994 -0.01224872 0.008078828 -0.001499994 -0.01263027 0.007861005 -0.001101924 -0.01310048 0.007883891 -0.001499994 -0.01290608 0.008149154 -0.0004811892 -0.0127749 0.007477541 -0.001499994 -0.01331031 0.007573607 0.0003328978 -0.01380435 0.007166746 -0.0001214922 -0.01424724 0.007369597 -0.001499994 -0.01341769 0.007494414 0.0004185628 -0.01391721 0.007246075 -0.001499994 -0.01350583 0.006943187 0.001014838 -0.01470275 0.006509228 0.0012063 -0.01519885 0.006619299 0.001300373 -0.01509276 0.006662773 -0.0006409949 -0.01444192 0.006898444 -0.001499994 -0.01375388 0.006333034 -0.001499994 -0.01402397 0.006253911 0.0008071691 -0.01537206 0.006375938 0.001092382 -0.01532731 0.006099549 0.0009277986 -0.01550852 0.00580166 0.0003014015 -0.01547538 0.005920934 0.0008214377 -0.01562562 0.005415068 0.0006285295 -0.01582777 0.006045234 -0.001064961 -0.01446788 0.006330351 -0.001499994 -0.01402525 0.006047252 -0.001499994 -0.01411026 0.005496337 -0.001499993 -0.01417836 0.005387693 -0.001350079 -0.01432828 0.004784261 -0.0005174218 -0.01516093 -0.005496332 -0.001499994 -0.01417836 0.00526733 -0.0001266722 -0.01542796 0.005310429 0.0005886261 -0.01586959 0.004647718 0.0004411709 -0.01600757 0.004630857 0.0004396406 -0.01600836 0.004702129 -0.0004409648 -0.01523739 0.003833864 0.0003673059 -0.01604566 -0.004783798 -0.0005168832 -0.01516147 -0.003833862 0.0003673059 -0.01604566 -0.003833862 0.0004362396 -0.01609064 0.003833864 0.0004362396 -0.01609064 0.004227906 0.0004030689 -0.01602722 0.003833864 0.000433186 -0.01608865 0.004228583 0.0004556911 -0.01608037 -0.003833862 0.0005174511 -0.01610405 0.004618229 0.000501764 -0.01604236 0.004647718 0.0004411709 -0.01600757 0.005310429 0.0005886261 -0.01586959 0.003833864 0.0005174511 -0.01610405 0.004224604 0.0005364897 -0.01609038 0.005375935 0.0006725426 -0.01586895 0.005381757 0.0006158266 -0.01584108 0.005920934 0.0008214377 -0.01562562 0.004609781 0.0005784119 -0.01604862 0.003833864 0.0005971849 -0.01608361 -0.003833862 0.0005971849 -0.01608361 0.003833864 0.0006000534 -0.01608136 -0.003833862 0.0006619362 -0.0160328 0.004597521 0.0006512004 -0.01602544 0.003833864 0.0006619362 -0.0160328 0.005357621 0.0007397932 -0.0158707 0.006056704 0.0009552648 -0.01555697 0.006064824 0.000907121 -0.01553128 0.006375938 0.001092382 -0.01532731 0.004582416 0.000716544 -0.01596772 0.004751024 0.0007288441 -0.01595306 0.006592418 0.001346265 -0.01510766 0.00533318 0.000801579 -0.01584958 0.005290227 0.0008740802 -0.01577997 0.00572291 0.0009906249 -0.01564108 0.006028602 0.001011678 -0.01555845 0.005993309 0.001061463 -0.01554263 0.005927286 0.00111744 -0.01548995 0.006469016 0.001453582 -0.01508935 -0.008841117 0.007009134 -0.008468501 0.006514032 0.001426177 -0.01510588 0.00663348 0.001615195 -0.01489675 0.0065302 0.001416334 -0.01511182 0.006556482 0.001389541 -0.01511242 0.007233439 0.002108027 -0.01425546 0.006582763 0.001362748 -0.01511301 0.007272753 0.002062763 -0.01424477 0.007294348 0.00201709 -0.0142211 0.007334115 0.002059311 -0.01416976 0.007184868 0.002144699 -0.01425254 0.00709348 0.002182139 -0.01422109 0.007689097 0.002916229 -0.01334623 0.007744266 0.002893931 -0.01335846 0.007796693 0.002857516 -0.0133573 0.008607393 0.00446338 -0.01147995 0.008546504 0.00448554 -0.011476 0.00862995 0.004455171 -0.01148141 -0.008482698 0.007821653 -0.007500179 0.008663418 0.004427833 -0.01147086 0.007838157 0.002811472 -0.01334191 0.007854465 0.00276589 -0.01331234 0.007967712 0.002919668 -0.01312574 0.008480898 0.003804784 -0.01205445 0.008696885 0.004400495 -0.01146031 0.008706935 0.004382069 -0.01144857 0.009005633 0.005152353 -0.01047101 0.008706765 0.00438238 -0.01144877 0.009058654 0.005668041 -0.009953015 0.009074202 0.00562993 -0.009922575 0.008662785 0.004428349 -0.01147106 0.00911002 0.005879408 -0.00963608 0.009014206 0.005701208 -0.009975954 0.009077836 0.006322077 -0.009192094 0.009092043 0.006290368 -0.009165027 0.008606253 0.004463795 -0.01147988 0.00907918 0.0065844 -0.008827999 0.008959918 0.005723379 -0.009988582 0.008971576 0.006980586 -0.00842652 0.008982626 0.006955462 -0.008403325 0.008903025 0.007261369 -0.008053217 0.009035035 0.006347155 -0.009214665 0.008710252 0.007622592 -0.007680279 0.0087216 0.007605208 -0.007660485 0.008614979 0.007807279 -0.007429681 0.008268325 0.008206448 -0.006971128 0.00893202 0.00699713 -0.008448814 0.008676014 0.007630492 -0.007702538 0.008984746 0.006362283 -0.009229154 0.008887243 0.007005158 -0.008465068 0.00888586 0.005732377 -0.009990081 0.008884344 0.00636638 -0.009234507 0.008886158 0.005606928 -0.01013959 0.008883267 0.006817465 -0.008696923 0.008813136 0.006999842 -0.008479575 0.008573943 0.007621882 -0.007738257 0.008517457 0.007768778 -0.007563194 0.008222464 0.008212255 -0.007016744 0.008246591 0.008231475 -0.00694238 0.007810553 0.00854738 -0.006580023 0.008128379 0.008182101 -0.007070614 0.007926387 0.00839668 -0.006814887 0.007494806 0.008676238 -0.006469168 0.007511823 0.008675075 -0.006432749 0.007308159 0.008762133 -0.006332344 0.007445762 0.008636314 -0.006529304 0.007282039 0.008717943 -0.006432022 0.007028419 0.008813489 -0.00630675 0.007003372 0.008759772 -0.006382171 0.006515002 0.00883308 -0.006294807 -0.006515 0.008862305 -0.006248212 -0.007036124 0.008828131 -0.006255601 -0.006515 0.00883308 -0.006294807 -0.007022017 0.008814715 -0.006305296 -0.007045093 0.008827277 -0.006256638 -0.007494865 0.008697418 -0.006407119 -0.007000427 0.008767899 -0.006372487 -0.007206843 0.008740183 -0.006405518 -0.007490699 0.008677895 -0.006467211 -0.007960853 0.008454911 -0.006686243 -0.007435867 0.008631908 -0.006534554 -0.007913049 0.008406313 -0.006803407 -0.008216583 0.008217749 -0.007010265 -0.008257835 0.008209257 -0.006967964 -0.008125626 0.008188133 -0.007063424 -0.008341034 0.008140438 -0.007046887 -0.008674317 0.007633508 -0.007698984 -0.008569985 0.007623777 -0.007735999 -0.008708522 0.007625649 -0.007676724 -0.008696391 0.007681117 -0.007574234 -0.00872834 0.007610728 -0.007654543 -0.008961736 0.007096533 -0.008241208 -0.008886007 0.007009851 -0.008459493 -0.008970262 0.006985394 -0.008420932 -0.008989306 0.006961257 -0.008396133 -0.009098356 0.00642617 -0.009008939 -0.008930738 0.007001875 -0.008443223 -0.008984998 0.006372797 -0.00921666 -0.008883831 0.006375439 -0.009223709 -0.008918868 0.005855644 -0.009843177 -0.009035236 0.006357793 -0.009202133 -0.00896099 0.005732113 -0.0099782 -0.008888261 0.005743023 -0.009977393 -0.008546501 0.00448554 -0.011476 -0.009077993 0.006332843 -0.009179579 -0.009097218 0.006301417 -0.00915198 -0.009091327 0.005655905 -0.009892118 -0.009015231 0.005710038 -0.009965545 -0.00860625 0.004463795 -0.01147988 -0.008629947 0.004455171 -0.01148141 -0.009059667 0.005676978 -0.009942613 -0.009087864 0.005637928 -0.009912818 -0.008662783 0.004428349 -0.01147106 -0.008961495 0.004981927 -0.01066814 -0.008696883 0.004400495 -0.01146031 -0.008706762 0.00438238 -0.01144877 -0.008734061 0.004332331 -0.01141688 -0.007839294 0.002813151 -0.01333989 -0.008706933 0.004382069 -0.01144857 -0.008190806 0.003279321 -0.0126904 -0.007847278 0.002769761 -0.01330795 -0.008663415 0.004427833 -0.01147086 -0.007552509 0.002332526 -0.01383785 -0.007797827 0.002859197 -0.01335528 -0.008607391 0.00446338 -0.01147995 -0.007273956 0.002064164 -0.01424308 -0.0072845 0.00202226 -0.01421491 -0.006890807 0.001566494 -0.01476879 -0.006592415 0.001346265 -0.01510766 -0.006619297 0.001300373 -0.01509276 -0.00658276 0.001362748 -0.01511301 -0.006890807 0.001566494 -0.01476879 -0.007302898 0.0006483804 -0.01421508 -0.007552509 0.002332526 -0.01383785 -0.007988647 0.002979454 -0.01305382 -0.007916323 -0.0001253527 -0.01322035 -0.007996114 -0.0002557548 -0.01305839 -0.008409578 -0.0009314806 -0.01221914 -0.008190806 0.003279321 -0.0126904 -0.008904984 0.004462636 -0.0109307 -0.008985468 0.004531037 -0.01065146 -0.00869185 -0.001499994 -0.01152952 -0.008994654 -0.001499994 -0.01065408 -0.009866601 -0.001499994 -0.006848451 -0.009329001 0.004822996 -0.009459559 -0.009858429 0.005313274 -0.006847038 -0.01043398 -0.001499994 -0.002999995 -0.01049876 -0.001450843 -0.002459168 -0.01055878 -0.001304485 -0.00193471 -0.01061241 -0.001066343 -0.001446336 -0.01065898 -0.000741976 -0.001006627 -0.01069721 -0.0003450764 -0.0006344785 -0.01072693 0.0001159492 -0.0003383445 -0.0107473 0.0006201736 -0.0001319132 -0.008657885 -0.001499994 -0.01161651 -0.008409578 -0.0009314806 -0.01221914 -0.008296057 -0.001499994 -0.01233629 -0.00807753 -0.001499994 -0.01263915 -0.008172086 -0.0005433477 -0.0127012 -0.007856443 -0.001102107 -0.01310624 -0.007890929 -0.001499994 -0.01289777 -0.007916323 -0.0001253527 -0.01322035 -0.007470413 -0.001499994 -0.01331433 -0.007162811 -0.0001230816 -0.01425085 -0.007486125 0.0004172704 -0.01391796 -0.007348085 -0.001499994 -0.01343551 -0.007302898 0.0006483804 -0.01421508 -0.006619297 0.001300373 -0.01509276 -0.007235782 -0.001499994 -0.01351711 -0.006503591 0.001209978 -0.01519417 -0.006654561 -0.0006450847 -0.01444511 -0.006974964 -0.001499994 -0.0137066 -0.006375606 -0.001499994 -0.01400862 -0.006317239 -0.001499994 -0.01402684 -0.006249592 0.000805656 -0.01537515 -0.006206479 0.0009778588 -0.01545458 -0.006099865 0.0009249863 -0.01551183 -0.005793794 0.0002973608 -0.01547756 -0.005669918 0.0007117638 -0.01574269 -0.005402823 0.0006289101 -0.0158266 -0.006032387 -0.00106968 -0.01446851 -0.006059675 -0.001499994 -0.01410723 -0.005386515 -0.001348475 -0.01432988 -0.005255691 -0.000131713 -0.01542747 -0.005054051 0.00052072 -0.01593616 -0.004608649 0.000446324 -0.0159987 -0.004700576 -0.0004394225 -0.01523893 -0.004330119 0.0003998008 -0.01603781 -0.003833862 0.0003993366 -0.01606656 -0.004330119 0.0003998008 -0.01603781 -0.004622823 0.0004677427 -0.0160289 -0.004620162 0.0004482471 -0.01599708 -0.005054051 0.00052072 -0.01593616 -0.004620495 0.0005025493 -0.01604216 -0.00461683 0.0005405112 -0.01604891 -0.005378542 0.0006737741 -0.01586813 -0.005381363 0.0006222529 -0.01583334 -0.005669918 0.0007117638 -0.01574269 -0.004611925 0.000579665 -0.01604817 -0.003833862 0.0006012208 -0.01608045 -0.006057831 0.0009562994 -0.01555625 -0.006066852 0.000908614 -0.01552956 -0.006206479 0.0009778588 -0.01545458 -0.00659225 0.001346548 -0.01510775 -0.005360011 0.0007413895 -0.01586968 -0.00602946 0.001013 -0.01555758 -0.004599519 0.0006526654 -0.01602445 -0.005335323 0.0008033272 -0.01584812 -0.00457707 0.0007421999 -0.01593714 -0.005126861 0.0008015755 -0.01586638 -0.006041932 0.001144141 -0.01545813 -0.005295367 0.0008646575 -0.0157912 -0.006469014 0.001453582 -0.01508935 -0.005948151 0.001109034 -0.01549997 -0.005993868 0.001062896 -0.01554144 -0.006041934 0.001144143 -0.01545813 -0.006513196 0.001426684 -0.01510558 -0.006530197 0.001416334 -0.01511182 -0.007590173 0.002770998 -0.01351932 -0.007186057 0.0021461 -0.01425086 -0.007091681 0.002185247 -0.01421739 -0.00651403 0.001426177 -0.01510588 -0.007745392 0.002895612 -0.01335645 -0.007674177 0.002921603 -0.01333983 -0.007234636 0.002109429 -0.01425378 -0.006556479 0.001389541 -0.01511242</float_array>
          <technique_common>
            <accessor count="523" source="#verts-array-array" stride="3">
              <param type="float" name="X"/>
              <param type="float" name="Y"/>
              <param type="float" name="Z"/>
            </accessor>
          </technique_common>
        </source>
        <source id="normals-array">
          <float_array count="1569" id="normals-array-array">-2.681626e-13 3.422867e-08 1 5.85111e-12 3.422627e-08 1 -6.114233e-13 3.422876e-08 1 2.63254e-14 3.422852e-08 1 -7.527643e-13 3.422885e-08 1 9.278297e-13 3.422806e-08 1 2.401058e-13 3.422846e-08 1 -5.792337e-13 3.422901e-08 1 1.740346e-13 3.422839e-08 1 -1.983855e-13 3.422879e-08 1 -7.801025e-14 3.422863e-08 1 -0.0006778119 -0.07356978 0.9972898 -1.444626e-14 -0.04899433 0.9987991 5.263387e-15 3.422855e-08 1 -0.0002821501 -0.1944987 0.9809027 -1.127997e-13 3.422847e-08 1 0.0002901627 -0.2645695 0.9643666 -6.346505e-14 3.422855e-08 1 0.000719984 -0.3781051 0.9257624 -4.344879e-13 3.422826e-08 1 -0.004422434 -0.2933072 0.956008 -1.568375e-13 3.422841e-08 1 0.00052014 -0.4598022 0.8880212 -3.006917e-13 3.422828e-08 1 0.00145199 -0.6117395 0.7910579 7.597231e-13 3.42294e-08 1 -0.005210618 -0.3789284 0.9254113 2.600085e-13 3.422899e-08 1 -0.0009383873 -0.5531839 0.8330586 -9.097394e-13 3.422812e-08 1 4.80228e-12 3.423144e-08 1 0.00042461 -0.6835597 0.7298945 -0.0007423293 -0.6352848 0.7722776 0.0002058657 -0.7447358 0.6673594 -0.0008799414 -0.7044715 0.7097317 0.0008258921 -0.8524503 0.5228076 -0.0005363596 -0.828715 0.5596706 0.0002149615 -0.8986828 0.4385992 -0.0002689341 -0.9214585 0.3884766 4.458749e-05 -0.9327843 0.3604352 0.0003347891 -0.9823537 0.1870324 -0.0001212129 -0.9793264 0.2022863 0.0001127992 -0.998787 0.04923871 9.796793e-10 -0.9985848 0.05318193 3.095557e-11 -1 -3.041317e-08 -5.57872e-09 -1 -1.625847e-08 -7.546855e-09 -1 -4.475366e-09 3.297475e-09 -1 -3.424465e-08 -4.524169e-08 -1 -9.110764e-08 -2.525599e-08 -1 -4.571584e-08 -2.093672e-09 -1 -9.032486e-08 -2.792175e-07 -1 -4.243758e-07 0 -1 0 0 -1 0 0 -1 0 0 -1 0 0 -1 0 -1.232506e-07 -1 -1.574774e-09 -1.761572e-07 -1 3.296777e-08 -5.912892e-07 -1 5.157027e-07 4.431658e-08 -1 -1.352244e-07 9.000249e-08 -1 -1.772381e-07 1.914385e-07 -1 -2.536086e-07 8.745447e-07 -1 -7.32341e-07 0 -1 0 -0.9558702 0.06920444 -0.2855221 -0.9343608 0.07450166 -0.3484528 -0.941203 0.06518239 -0.3314937 -0.9538733 0.09563874 -0.2845681 -0.9546127 0.1201376 -0.2725464 -0.9550028 0.1561102 -0.2521889 -0.9628436 0.1628817 -0.2154106 -0.9479702 0.2041195 -0.2443108 -0.9538102 0.1705528 -0.2473012 -0.9197004 0.3032185 -0.2494186 -0.8826536 0.3795076 -0.2773025 -0.8614189 0.4485036 -0.2383318 -0.9746707 0.0930201 -0.2033821 -0.8638649 0.4465367 -0.2331145 -0.9277759 0.3222402 -0.1881308 -0.982048 0.09237486 -0.1644648 -0.8216326 0.5348994 -0.1969833 -0.8437487 0.4838917 -0.2322434 -0.7616539 0.6067592 -0.2274349 -0.9709553 0.1831675 -0.1539335 -0.9729454 0.1847324 -0.1387488 -0.6934975 0.6947125 -0.1908815 -0.7324411 0.6427505 -0.2245037 -0.5936273 0.7811699 -0.1933395 -0.5373155 0.8234351 -0.1823367 -0.9351647 0.3251488 -0.1405174 -0.9773579 0.1709014 -0.1247565 -0.5356789 0.8251827 -0.1792251 -0.4474355 0.8758897 -0.1806064 -0.3872715 0.9047849 -0.177158 -0.9758477 0.1826509 -0.1198328 -0.9924343 0.05058594 -0.1118719 -0.9329273 0.3407018 -0.1164856 -0.9004353 0.4200956 -0.1128534 -0.8619555 0.4941353 -0.1134156 -0.9952434 5.447436e-05 -0.09741945 -0.9939859 2.649667e-05 -0.1095078 -0.9941147 0.001370549 -0.1083236 -0.8280418 0.5424487 -0.1417612 -0.8172349 0.5653259 -0.1119543 -0.7687027 0.6302372 -0.1090742 -0.9923036 -0.0001910953 -0.1238287 -0.6975658 0.703494 -0.1360078 -0.7114901 0.6950535 -0.1033561 -0.6478962 0.7539178 -0.1088047 -0.5883438 0.801637 -0.1059704 -0.5394112 0.8328607 -0.1240109 -0.5180623 0.849863 -0.09666614 -0.3821343 0.9118563 -0.1499715 -0.3302489 0.9318399 -0.1503666 -0.295049 0.940448 -0.1688301 -0.16665 0.9801047 -0.1078084 -0.3210264 0.9413388 -0.1040352 -0.1558987 0.9809582 -0.1158301 -0.03338322 0.9796079 -0.1981259 -0.1866305 0.9756911 -0.1148733 -0.1714243 0.9815499 -0.08469635 -0.09055734 0.9936791 -0.06634172 -0.3875023 0.8675171 -0.3118589 -0.2380547 0.9600032 -0.1473902 -0.0758643 0.9957272 -0.0526502 -0.01372098 0.999042 -0.04155427 0 0.9991918 -0.04019729 -0.0002506854 0.9985275 -0.05424738 0.0006515562 0.9978608 -0.06537142 -0.000524935 0.9985454 -0.05391558 5.343131e-05 0.9970704 -0.07648906 -0.0003757263 0.9959811 -0.08956303 0.05162133 0.9912705 -0.1213175 0.01562967 0.9778209 -0.2088589 0.1316132 0.9851024 -0.1106849 0.1784928 0.9772339 -0.1146915 0.01423493 0.9126851 -0.4084157 0.05540344 0.8751966 -0.4805844 0.1267847 0.9849404 -0.11755 0.3346005 0.9303633 -0.149889 0.2289972 0.9660534 -0.1195873 0.1883484 0.9764809 -0.1049278 0.354496 0.9222759 -0.1540772 0.3280681 0.9384791 -0.1078346 0.1693963 0.9822911 -0.08005742 0.09806443 0.9931103 -0.06415095 0.1856204 0.9796863 -0.07589382 0.3443006 0.9352425 -0.08233182 0.4235245 0.901434 -0.0896872 0.5428437 0.8303518 -0.125844 0.4951393 0.8634007 -0.09683133 0.5660182 0.8186472 -0.09716038 0.634366 0.7663796 -0.1012036 0.541243 0.8214487 -0.1796607 0.4025734 0.9039766 -0.1440866 0.5574534 0.8032073 -0.2100088 0.6071285 0.76599 -0.2113158 0.701691 0.6989963 -0.1379631 0.6956793 0.7109868 -0.1026066 0.7549322 0.646681 -0.1090002 0.6971289 0.6905657 -0.1926922 0.6925925 0.6854532 -0.2246545 0.7374063 0.6376769 -0.222711 0.8231713 0.5319857 -0.1984445 0.8136667 0.5325251 -0.2331597 0.8603531 0.4572326 -0.2252354 0.8302401 0.5391551 -0.1414675 0.8047641 0.5827925 -0.1127284 0.8514503 0.5117701 -0.1145585 0.9281699 0.3202794 -0.1895304 0.9372065 0.3209724 -0.1364576 0.9093457 0.3752307 -0.1797005 0.920497 0.3028943 -0.2468611 0.8742203 0.4463006 -0.1911928 0.8760386 0.4188695 -0.2389658 0.9417626 0.2457876 -0.2295029 0.9755757 0.1816688 -0.1234848 0.8671797 0.3793224 -0.3226668 0.9580719 0.2240844 -0.1785623 0.9931678 0.0553 -0.1027597 0.9766065 0.1734635 -0.1270831 0.9715928 0.1852079 -0.1473279 0.9707999 0.1766186 -0.1623372 0.9801289 0.09294304 -0.1752398 0.9572536 0.1780789 -0.2279328 0.9533185 0.163375 -0.2539538 0.9563493 0.1913903 -0.2208298 0.958431 0.1409038 -0.2481051 0.9577287 0.1357212 -0.2536444 0.956634 0.1109937 -0.2693173 0.9551938 0.0893994 -0.282157 0.9478461 0.04931393 -0.3148904 0.993996 -0.0003717635 -0.1094153 0.994969 0.0002408449 -0.1001827 0.9951919 0.0001068194 -0.09794428 0.994992 0.0005115148 -0.09995338 0.9946961 0.001392426 -0.1028484 0.994191 0.002690771 -0.1075962 0.9912655 -0.001343328 -0.1318745 0.9940181 0.003780764 -0.1091501 0.9936961 0.002787787 -0.1120725 0.9932168 0.001705713 -0.1162648 0.9914803 -3.465824e-05 -0.1302569 0.9847859 -0.001538354 -0.1737654 0.9839659 0.0007670939 -0.1783553 0.9791073 -0.006275223 -0.2032476 0.9667618 -0.00501471 -0.2556296 0.965948 0.002054035 -0.2587282 0.9527244 9.685946e-05 -0.303836 0.9123073 0.09602603 -0.3980885 0.9264946 -0.007953426 -0.376224 0.9336599 -0.006351361 -0.3581045 0.9155652 -0.001869339 -0.4021651 0.9004825 -0.003423124 -0.4348787 0.904416 0.002786631 -0.4266427 0.8594602 0.00118193 -0.5112012 0.9001352 -0.02302092 -0.435002 0.8337221 0.005918058 -0.5521525 0.7972537 0.00963071 -0.6035676 0.7790083 0.02807399 -0.6263848 0.7790687 0.02807617 -0.6263096 0.6977564 0.1183083 -0.7064978 0.8587171 -0.1228279 -0.497512 0.8724305 -0.07563928 -0.4828496 0.8205489 -0.1503456 -0.5514487 0.775367 -0.2040667 -0.5976309 0.7517734 -0.2539686 -0.608553 0.8464005 -0.1208663 -0.5186498 0.6754223 -0.3011477 -0.673138 0.7948383 -0.1125983 -0.5962832 0.7048534 -0.2183017 -0.6749267 0.625061 -0.3328917 -0.7060325 0.779645 -0.09475225 -0.6190118 0.5485675 -0.3862746 -0.7415293 0.7267668 -0.128938 -0.674674 0.725496 -0.1510874 -0.6714374 0.7312043 -0.09353599 -0.6757154 0.5074323 -0.4176159 -0.7537304 0.4707075 -0.469293 -0.7471269 0.3727615 -0.5231257 -0.7664126 0.606777 -0.2267794 -0.7618351 0.738814 -0.2159386 -0.6383764 0.5734284 -0.2518686 -0.7795781 0.4394238 -0.4189948 -0.7945754 0.5842446 -0.3460737 -0.7340921 0.4292615 -0.4444487 -0.7862569 0.2615248 -0.582792 -0.7693883 0.3243482 -0.5617694 -0.7610607 0.1663755 -0.6257194 -0.7620987 0.07515876 -0.6680912 -0.7402738 0.1255369 -0.6545493 -0.7455237 0.0606231 -0.6796524 -0.7310249 -0.07452449 -0.6695629 -0.7390072 0.2285756 -0.5838594 -0.7790131 0.390773 -0.5004989 -0.7725266 0.1530519 -0.6191585 -0.7702064 0.09706822 -0.6533051 -0.7508464 0.1033096 -0.6480737 -0.754538 0.03604429 -0.6223218 -0.7819312 -0.05949286 -0.6802029 -0.7306057 -0.02053604 -0.6260547 -0.7795087 -0.04107579 -0.3640078 -0.9304897 0.02108024 -0.3646689 -0.9308986 0.1006592 -0.686022 -0.7205842 0.06716037 -0.5559646 -0.8284883 0.09443452 -0.4412411 -0.892406 -0.03176931 0.0397901 -0.9987029 0.1707076 -0.2623506 -0.9497532 0.1961513 -0.4146758 -0.8885767 0.3044108 -0.2364441 -0.9227287 0.01446331 0.04174216 -0.9990237 0.06534002 0.1506339 -0.986428 0.370736 -0.1344408 -0.9189562 0.4601658 -0.3530437 -0.8146211 0.4189481 0.03005084 -0.9075128 0.1417696 0.1281463 -0.9815701 0.01905702 0.4461606 -0.89475 -0.02529843 0.4421164 -0.8966008 0.03441158 0.6083596 -0.7929151 -0.004461102 0.693611 -0.7203359 0.06486093 0.4873072 -0.8708185 0.004380145 0.6935794 -0.7203668 0.2586601 0.2163887 -0.9414196 0.5452968 -0.01497966 -0.8381092 0.6366634 -0.276681 -0.7197967 0.4752493 0.2958851 -0.8286073 0.01653393 0.6641329 -0.7474317 0.03069329 0.6917621 -0.7214729 0.6522096 0.1511609 -0.7428143 0.1269925 0.5420635 -0.8306865 0.03818566 0.7037182 -0.7094523 0.06536245 0.6903104 -0.7205549 0.3738863 0.3267541 -0.8680097 0.1866087 0.5900391 -0.7855132 0.06189278 0.7217846 -0.6893448 0.07819722 0.7232493 -0.6861455 -0.06014154 0.7723661 -0.632324 0.1532278 0.6747804 -0.7219367 0.09699239 0.7229925 -0.6840134 0.2986112 0.564738 -0.7693519 0.4293213 0.4350636 -0.7914562 0.4980788 0.4600497 -0.7350318 0.5506991 0.2862342 -0.7840921 0.6995881 0.2104582 -0.6828498 0.774299 0.03887229 -0.6316249 0.7709945 0.1398798 -0.6212898 0.2349421 0.6570948 -0.7162602 0.07244828 0.7391957 -0.6695827 0.07322919 0.7446057 -0.6634756 0.2857118 0.6535614 -0.7008753 0.5449483 0.475154 -0.6908401 0.2108797 0.6974858 -0.6848674 0.1129498 0.7411203 -0.6618029 0.4260397 0.6146568 -0.6638428 -0.1356091 0.7990366 -0.5857906 0.5894804 0.4654329 -0.660216 0.7749801 0.1901063 -0.6027151 0.8619876 -0.02013575 -0.5065293 0.7653948 0.2598457 -0.5887707 0.6339055 0.4275916 -0.6444605 0.7592425 0.343982 -0.5524738 0.8510856 0.1622407 -0.4993308 0.584644 0.5430415 -0.6027415 0.878081 0.2242323 -0.4227217 0.8266964 0.3710423 -0.4229665 0.9477708 0.1722184 -0.2684611 0.6147019 0.5241167 -0.5894432 0.7430886 0.4966349 -0.4485232 0.5517779 0.5983706 -0.5809422 0.8091748 0.4631265 -0.3615936 0.9462797 0.2606818 -0.1913107 0.221737 0.7206696 -0.6568622 0.6438941 0.621263 -0.4465789 0.2743719 0.7192531 -0.638275 0.7793534 0.5527549 -0.295077 0.9378721 0.3372821 -0.08146605 0.5037927 0.7335491 -0.4561783 0.5094547 0.6691187 -0.5410509 0.6825504 0.6823544 -0.2617583 0.8601936 0.5077793 -0.04719315 0.310719 0.8177333 -0.4845265 0.4602329 0.8080925 -0.3676578 0.4525929 0.7298451 -0.5123337 0.3221871 0.7933479 -0.5165215 0.2344248 0.7487221 -0.6200486 0.2128994 0.7725623 -0.5981817 0.1040875 0.7607066 -0.640696 0.06537925 0.7644702 -0.6413352 0.106289 0.7489571 -0.6540382 0.08436016 0.7683573 -0.6344371 0.0674337 0.7749075 -0.6284673 0.1439484 0.7823918 -0.6059224 0.1250394 0.7961438 -0.5920475 0.2799593 0.8328446 -0.4774857 0.3858811 0.8551224 -0.3462101 0.1903529 0.8613954 -0.470918 0.08767479 0.7961124 -0.5987638 0.2252244 0.8708306 -0.4369532 0.2034332 0.9066148 -0.3696817 0.3361533 0.9331694 -0.1272631 0.1453642 0.9193397 -0.3656279 0.0567869 0.8098081 -0.5839402 0.04283126 0.8206255 -0.5698589 0.08000445 0.9381194 -0.3369441 0.01738695 0.8116632 -0.5838669 0.005651135 0.8103403 -0.5859323 -0.02067671 0.914481 -0.4041002 -0.05920133 0.9593489 -0.2759438 -0.005523755 0.8103209 -0.5859604 -0.06829548 0.9022382 -0.4257958 -0.1176314 0.9466027 -0.3001768 -0.2063717 0.9262576 -0.3153691 -0.01771351 0.8176721 -0.5754117 -0.0417416 0.8208937 -0.5695535 -0.1564246 0.8811685 -0.4461765 -0.1959662 0.8601913 -0.4708165 -0.04863069 0.8059597 -0.5899695 -0.2305575 0.8730552 -0.4296718 -0.2819972 0.8477575 -0.4492046 -0.4502227 0.8517256 -0.2680727 -0.08894709 0.7976212 -0.5965641 -0.3901413 0.8211694 -0.4164979 -0.318859 0.7924987 -0.5198795 -0.1415779 0.7835087 -0.6050371 -0.6004917 0.7179795 -0.352016 -0.5017667 0.7842102 -0.3650269 -0.7442125 0.6203399 -0.247641 -0.5910727 0.6988665 -0.4027638 -0.2307443 0.771064 -0.593479 -0.7187436 0.5935181 -0.3621379 -0.8655015 0.4433588 -0.2331097 -0.724714 0.5653552 -0.3939075 -0.4520213 0.7304759 -0.5119391 -0.2336669 0.7498448 -0.618977 -0.06456112 0.7662413 -0.6393013 -0.08090332 0.7613073 -0.6433241 -0.5086253 0.6699995 -0.5407411 -0.2736449 0.71539 -0.6429118 -0.1052361 0.7498431 -0.6531927 -0.1128114 0.7414741 -0.6614301 -0.7780067 0.4854215 -0.3988377 -0.9086063 0.311152 -0.2786021 -0.8507051 0.3643487 -0.3788811 -0.5512792 0.5989628 -0.5808054 -0.2217875 0.7206875 -0.6568255 -0.4261255 0.6147321 -0.6637179 -0.7671026 0.4373747 -0.4693155 -0.8587185 0.3070167 -0.4102966 -0.6147878 0.5243772 -0.5891218 -0.5721389 0.5507354 -0.6077398 -0.759341 0.3441396 -0.5522402 -0.8754261 0.2239796 -0.428325 -0.9060947 0.09157257 -0.4130458 -0.815707 0.136499 -0.5621299 -0.8509123 0.1522297 -0.5027667 -0.6222383 0.4370476 -0.6494682 -0.9076813 -0.127287 -0.3998907 -0.5894904 0.4654654 -0.660184 -0.7198033 0.2409046 -0.6510362 -0.5450167 0.4751676 -0.6907768 -0.2115978 0.6977901 -0.6843357 -0.7565555 0.1278253 -0.6413146 -0.8542196 -0.1243947 -0.5048117 -0.6148774 0.2965316 -0.7307494 -0.6854132 0.1806014 -0.7054019 -0.6858232 0.0933479 -0.7217566 -0.5543751 0.2862519 -0.7814909 -0.7940602 -0.01012749 -0.6077548 -0.8359455 0.001441796 -0.5488106 -0.8677211 -0.01734255 -0.4967488 -0.8763577 -0.007152279 -0.4816077 -0.8842884 0.004445487 -0.46692 -0.8979013 0.002694673 -0.4401885 -0.9203175 0.005566941 -0.3911326 -0.9055131 -0.000442734 -0.424318 -0.9563471 -0.01816506 -0.2916679 -0.9627726 -0.01864521 -0.269669 -0.9366649 0.008219688 -0.3501303 -0.9612972 0.001583878 -0.2755091 -0.9826239 -0.002829257 -0.1855862 -0.9696456 -0.0182497 -0.2438328 -0.9853714 0.001217145 -0.1704164 -0.9916269 0.001557084 -0.1291262 -0.9927905 0.01182752 -0.1192775 -0.9932655 0.008651895 -0.1155371 -0.9937392 0.005850267 -0.1115715 -0.9941812 0.003581064 -0.1076608 -0.9945662 0.001919733 -0.1040888 -0.9948776 0.0008429824 -0.1010838 -0.9951079 0.0002549743 -0.09879398 -0.9235242 -0.003179377 -0.383527 -0.8619879 -0.09153986 -0.4985954 -0.8461273 -0.05982376 -0.5296128 -0.8307419 -0.1222195 -0.5430749 -0.8525822 -0.1147761 -0.5098334 -0.7744252 -0.2043363 -0.5987589 -0.7483776 -0.2557816 -0.6119695 -0.8166508 -0.116243 -0.5653044 -0.6727866 -0.3047357 -0.674162 -0.7067566 -0.2189542 -0.6727214 -0.801423 -0.1183444 -0.5862727 -0.6257332 -0.3333864 -0.7052031 -0.7665975 -0.1098691 -0.6326587 -0.7184483 -0.1298496 -0.6833528 -0.5547118 -0.3815661 -0.7393931 -0.7108869 -0.137121 -0.6898099 -0.5041293 -0.4199002 -0.754677 -0.4860214 -0.4598473 -0.7431848 -0.3183432 -0.5114088 -0.7981971 -0.2860063 -0.5449007 -0.7882155 -0.6155419 -0.2339878 -0.7525675 -0.6354404 -0.1865387 -0.7492789 -0.5354543 -0.2806993 -0.7965529 -0.4361116 -0.4218264 -0.794902 -0.4724251 -0.3704467 -0.7997399 -0.3698498 -0.4649165 -0.8044027 -0.2589289 -0.5855347 -0.7681829 -0.1738809 -0.6267113 -0.7596041 -0.1231428 -0.6556797 -0.7449295 -0.2225173 -0.5838699 -0.7807573 -0.2916039 -0.5304833 -0.7959614 -0.1878365 -0.6097429 -0.7700202 -0.1035579 -0.6469196 -0.7554937 -0.1197336 -0.656282 -0.7449549 -0.06782758 -0.5350126 -0.8421169 -0.06459177 -0.1602912 -0.9849541 -0.1941136 -0.6085227 -0.7694284 -0.2104337 -0.8412891 -0.4979461 -0.2519665 -0.1316464 -0.9587399 -0.164156 -0.2462684 -0.9551988 -0.1564542 -0.06430583 -0.9855896 -0.3629386 -0.2027285 -0.9094926 -0.3967823 -0.4986899 -0.770631 -0.3969581 0.03966861 -0.9169791 -0.1259606 0.1739322 -0.9766686 -0.03395057 0.6085326 -0.7928023 -0.5187798 -0.03204865 -0.854307 -0.5661791 -0.3184536 -0.7602818 -0.5428198 0.1614632 -0.8241822 -0.6020811 0.1017051 -0.7919308 -0.257722 0.2205932 -0.9407008 -0.3691963 0.33034 -0.8686597 -0.06287247 0.5108579 -0.857363 -0.1332966 0.5406383 -0.8306276 -0.01625389 0.7001641 -0.7137969 -0.03359056 0.6930984 -0.7200599 -3.910327e-07 0.7660441 -0.6427881 -0.05660231 0.6987139 -0.7131585 -0.0799365 0.7240158 -0.6851359 -0.0570927 0.6981638 -0.713658 -0.1856235 0.5807268 -0.792654 -0.1335123 0.6700433 -0.7302167 -0.1401355 0.6608362 -0.7373314 -0.2987294 0.5648173 -0.7692478 -0.07905859 0.7393273 -0.668689 -0.2333784 0.6574136 -0.7164788 -0.06912088 0.7393587 -0.6697544 -0.1667055 0.6907489 -0.7036159 -0.2742212 0.6611053 -0.6983856 -0.1120383 0.7347789 -0.6689899 -0.4981515 0.4600578 -0.7349775 -0.4596077 0.467614 -0.7550482</float_array>
          <technique_common>
            <accessor count="523" source="#normals-array-array" stride="3">
              <param type="float" name="X"/>
              <param type="float" name="Y"/>
              <param type="float" name="Z"/>
            </accessor>
          </technique_common>
        </source>
        <source id="texcoords-array">
          <float_array count="1046" id="texcoords-array-array">0 1 0 1 0 1 0 1 0 1 0 1 0 1 0 1 0 1 0 1 0 1 0 1 0 1 0 1 0 1 0 1 0 1 0 1 0 1 0 1 0 1 0 1 0 1 0 1 0 1 0 1 0 1 0 1 0 1 0 1 0 1 0 1 0 1 0 1 0 1 0 1 0 1 0 1 0 1 0 1 0 1 0 1 0 1 0 1 0 1 0 1 0 1 0 1 0 1 0 1 0 1 0 1 0 1 0 1 0 1 0 1 0 1 0 1 0 1 0 1 0 1 0 1 0 1 0 1 0 1 0 1 0 1 0 1 0 1 0 1 0 1 0 1 0 1 0 1 0 1 0 1 0 1 0 1 0 1 0 1 0 1 0 1 0 1 0 1 0 1 0 1 0 1 0 1 0 1 0 1 0 1 0 1 0 1 0 1 0 1 0 1 0 1 0 1 0 1 0 1 0 1 0 1 0 1 0 1 0 1 0 1 0 1 0 1 0 1 0 1 0 1 0 1 0 1 0 1 0 1 0 1 0 1 0 1 0 1 0 1 0 1 0 1 0 1 0 1 0 1 0 1 0 1 0 1 0 1 0 1 0 1 0 1 0 1 0 1 0 1 0 1 0 1 0 1 0 1 0 1 0 1 0 1 0 1 0 1 0 1 0 1 0 1 0 1 0 1 0 1 0 1 0 1 0 1 0 1 0 1 0 1 0 1 0 1 0 1 0 1 0 1 0 1 0 1 0 1 0 1 0 1 0 1 0 1 0 1 0 1 0 1 0 1 0 1 0 1 0 1 0 1 0 1 0 1 0 1 0 1 0 1 0 1 0 1 0 1 0 1 0 1 0 1 0 1 0 1 0 1 0 1 0 1 0 1 0 1 0 1 0 1 0 1 0 1 0 1 0 1 0 1 0 1 0 1 0 1 0 1 0 1 0 1 0 1 0 1 0 1 0 1 0 1 0 1 0 1 0 1 0 1 0 1 0 1 0 1 0 1 0 1 0 1 0 1 0 1 0 1 0 1 0 1 0 1 0 1 0 1 0 1 0 1 0 1 0 1 0 1 0 1 0 1 0 1 0 1 0 1 0 1 0 1 0 1 0 1 0 1 0 1 0 1 0 1 0 1 0 1 0 1 0 1 0 1 0 1 0 1 0 1 0 1 0 1 0 1 0 1 0 1 0 1 0 1 0 1 0 1 0 1 0 1 0 1 0 1 0 1 0 1 0 1 0 1 0 1 0 1 0 1 0 1 0 1 0 1 0 1 0 1 0 1 0 1 0 1 0 1 0 1 0 1 0 1 0 1 0 1 0 1 0 1 0 1 0 1 0 1 0 1 0 1 0 1 0 1 0 1 0 1 0 1 0 1 0 1 0 1 0 1 0 1 0 1 0 1 0 1 0 1 0 1 0 1 0 1 0 1 0 1 0 1 0 1 0 1 0 1 0 1 0 1 0 1 0 1 0 1 0 1 0 1 0 1 0 1 0 1 0 1 0 1 0 1 0 1 0 1 0 1 0 1 0 1 0 1 0 1 0 1 0 1 0 1 0 1 0 1 0 1 0 1 0 1 0 1 0 1 0 1 0 1 0 1 0 1 0 1 0 1 0 1 0 1 0 1 0 1 0 1 0 1 0 1 0 1 0 1 0 1 0 1 0 1 0 1 0 1 0 1 0 1 0 1 0 1 0 1 0 1 0 1 0 1 0 1 0 1 0 1 0 1 0 1 0 1 0 1 0 1 0 1 0 1 0 1 0 1 0 1 0 1 0 1 0 1 0 1 0 1 0 1 0 1 0 1 0 1 0 1 0 1 0 1 0 1 0 1 0 1 0 1 0 1 0 1 0 1 0 1 0 1 0 1 0 1 0 1 0 1 0 1 0 1 0 1 0 1 0 1 0 1 0 1 0 1 0 1 0 1 0 1 0 1 0 1 0 1 0 1 0 1 0 1 0 1 0 1 0 1 0 1 0 1 0 1 0 1 0 1 0 1 0 1 0 1 0 1 0 1 0 1 0 1 0 1 0 1 0 1 0 1 0 1 0 1 0 1 0 1 0 1 0 1 0 1 0 1 0 1 0 1 0 1 0 1 0 1 0 1 0 1 0 1 0 1 0 1 0 1 0 1 0 1 0 1 0 1 0 1 0 1 0 1 0 1 0 1 0 1 0 1 0 1 0 1 0 1 0 1 0 1 0 1 0 1 0 1 0 1 0 1 0 1 0 1 0 1 0 1 0 1 0 1 0 1 0 1 0 1 0 1 0 1 0 1 0 1 0 1 0 1 0 1 0 1 0 1 0 1 0 1 0 1 0 1 0 1 0 1 0 1 0 1 0 1 0 1 0 1 0 1 0 1</float_array>
          <technique_common>
            <accessor count="523" source="#texcoords-array-array" stride="2">
              <param type="float" name="S"/>
              <param type="float" name="T"/>
            </accessor>
          </technique_common>
        </source>
        <vertices id="verts-array-vertices">
          <input semantic="POSITION" source="#verts-array"/>
        </vertices>
        <triangles count="669" material="material0">
          <input offset="0" semantic="VERTEX" source="#verts-array-vertices"/>
          <input offset="1" semantic="NORMAL" source="#normals-array"/>
          <input offset="2" semantic="TEXCOORD" source="#texcoords-array"/>
          <p>0 0 0 1 1 1 2 2 2 2 2 2 3 3 3 0 0 0 3 3 3 4 4 4 0 0 0 3 3 3 5 5 5 4 4 4 3 3 3 6 6 6 5 5 5 3 3 3 7 7 7 6 6 6 3 3 3 8 8 8 7 7 7 3 3 3 9 9 9 8 8 8 3 3 3 10 10 10 9 9 9 3 3 3 11 11 11 10 10 10 10 10 10 11 11 11 12 12 12 12 12 12 13 13 13 10 10 10 14 14 14 12 12 12 11 11 11 13 13 13 12 12 12 15 15 15 14 14 14 11 11 11 16 16 16 17 17 17 13 13 13 15 15 15 14 14 14 16 16 16 18 18 18 19 19 19 17 17 17 15 15 15 18 18 18 20 20 20 14 14 14 19 19 19 15 15 15 21 21 21 20 20 20 18 18 18 22 22 22 21 21 21 23 23 23 19 19 19 20 20 20 22 22 22 24 24 24 25 25 25 19 19 19 23 23 23 26 26 26 20 20 20 24 24 24 27 27 27 25 25 25 23 23 23 28 28 28 26 26 26 24 24 24 23 23 23 29 29 29 27 27 27 23 23 23 30 30 30 29 29 29 28 28 28 24 24 24 31 31 31 31 31 31 32 32 32 28 28 28 32 32 32 31 31 31 33 33 33 34 34 34 32 32 32 33 33 33 34 34 34 33 33 33 35 35 35 36 36 36 34 34 34 35 35 35 36 36 36 35 35 35 37 37 37 37 37 37 38 38 38 36 36 36 38 38 38 37 37 37 39 39 39 38 38 38 39 39 39 40 40 40 41 41 41 38 38 38 40 40 40 41 41 41 40 40 40 42 42 42 42 42 42 43 43 43 41 41 41 43 43 43 42 42 42 44 44 44 43 43 43 44 44 44 45 45 45 45 45 45 46 46 46 43 43 43 47 47 47 43 43 43 46 46 46 47 47 47 46 46 46 48 48 48 49 49 49 47 47 47 48 48 48 49 49 49 48 48 48 50 50 50 50 50 50 48 48 48 51 51 51 50 50 50 51 51 51 52 52 52 52 52 52 53 53 53 50 50 50 50 50 50 53 53 53 54 54 54 50 50 50 54 54 54 55 55 55 55 55 55 56 56 56 50 50 50 50 50 50 57 57 57 49 49 49 58 58 58 49 49 49 57 57 57 58 58 58 57 57 57 59 59 59 59 59 59 60 60 60 58 58 58 58 58 58 60 60 60 61 61 61 61 61 61 62 62 62 58 58 58 63 63 63 58 58 58 62 62 62 62 62 62 64 64 64 63 63 63 65 65 65 66 66 66 67 67 67 67 67 67 68 68 68 65 65 65 68 68 68 69 69 69 65 65 65 69 69 69 68 68 68 70 70 70 70 70 70 71 71 71 69 69 69 72 72 72 71 71 71 70 70 70 70 70 70 73 73 73 72 72 72 73 73 73 74 74 74 72 72 72 75 75 75 72 72 72 74 74 74 74 74 74 76 76 76 75 75 75 74 74 74 73 73 73 77 77 77 78 78 78 76 76 76 74 74 74 79 79 79 74 74 74 77 77 77 78 78 78 74 74 74 79 79 79 77 77 77 80 80 80 79 79 79 79 79 79 81 81 81 78 78 78 82 82 82 78 78 78 81 81 81 83 83 83 82 82 82 81 81 81 80 80 80 84 84 84 79 79 79 79 79 79 84 84 84 85 85 85 81 81 81 86 86 86 83 83 83 87 87 87 83 83 83 86 86 86 86 86 86 88 88 88 87 87 87 89 89 89 88 88 88 86 86 86 85 85 85 90 90 90 79 79 79 85 85 85 91 91 91 90 90 90 86 86 86 92 92 92 89 89 89 93 93 93 89 89 89 92 92 92 94 94 94 93 93 93 92 92 92 95 95 95 90 90 90 91 91 91 91 91 91 96 96 96 95 95 95 90 90 90 95 95 95 97 97 97 97 97 97 98 98 98 90 90 90 90 90 90 98 98 98 99 99 99 100 100 100 96 96 96 101 101 101 101 101 101 102 102 102 100 100 100 99 99 99 103 103 103 90 90 90 79 79 79 90 90 90 103 103 103 99 99 99 104 104 104 103 103 103 103 103 103 81 81 81 79 79 79 103 103 103 104 104 104 105 105 105 102 102 102 101 101 101 106 106 106 107 107 107 103 103 103 105 105 105 81 81 81 103 103 103 107 107 107 105 105 105 108 108 108 107 107 107 107 107 107 86 86 86 81 81 81 107 107 107 108 108 108 109 109 109 92 92 92 86 86 86 107 107 107 107 107 107 109 109 109 110 110 110 110 110 110 111 111 111 107 107 107 107 107 107 111 111 111 92 92 92 111 111 111 110 110 110 112 112 112 111 111 111 112 112 112 113 113 113 114 114 114 92 92 92 111 111 111 92 92 92 114 114 114 94 94 94 115 115 115 94 94 94 114 114 114 114 114 114 116 116 116 115 115 115 113 113 113 117 117 117 111 111 111 111 111 111 117 117 117 114 114 114 116 116 116 114 114 114 118 118 118 118 118 118 119 119 119 116 116 116 120 120 120 118 118 118 114 114 114 114 114 114 117 117 117 120 120 120 117 117 117 121 121 121 120 120 120 122 122 122 121 121 121 117 117 117 117 117 117 113 113 113 122 122 122 122 122 122 113 113 113 123 123 123 123 123 123 124 124 124 122 122 122 124 124 124 125 125 125 122 122 122 125 125 125 126 126 126 122 122 122 122 122 122 127 127 127 128 128 128 129 129 129 122 122 122 128 128 128 128 128 128 130 130 130 129 129 129 129 129 129 130 130 130 131 131 131 132 132 132 129 129 129 131 131 131 131 131 131 133 133 133 132 132 132 132 132 132 133 133 133 134 134 134 134 134 134 119 119 119 132 132 132 135 135 135 134 134 134 133 133 133 133 133 133 136 136 136 135 135 135 119 119 119 134 134 134 137 137 137 137 137 137 134 134 134 138 138 138 138 138 138 139 139 139 137 137 137 135 135 135 136 136 136 140 140 140 140 140 140 141 141 141 135 135 135 140 140 140 136 136 136 142 142 142 140 140 140 143 143 143 141 141 141 142 142 142 144 144 144 140 140 140 142 142 142 145 145 145 144 144 144 145 145 145 146 146 146 147 147 147 147 147 147 144 144 144 145 145 145 144 144 144 147 147 147 148 148 148 148 148 148 149 149 149 144 144 144 150 150 150 144 144 144 149 149 149 140 140 140 144 144 144 150 150 150 149 149 149 151 151 151 150 150 150 151 151 151 152 152 152 150 150 150 150 150 150 152 152 152 153 153 153 143 143 143 140 140 140 154 154 154 150 150 150 154 154 154 140 140 140 154 154 154 155 155 155 143 143 143 156 156 156 155 155 155 154 154 154 154 154 154 157 157 157 156 156 156 153 153 153 158 158 158 150 150 150 154 154 154 150 150 150 158 158 158 153 153 153 159 159 159 158 158 158 158 158 158 159 159 159 160 160 160 157 157 157 154 154 154 161 161 161 158 158 158 161 161 161 154 154 154 161 161 161 162 162 162 157 157 157 161 161 161 163 163 163 162 162 162 163 163 163 161 161 161 164 164 164 164 164 164 161 161 161 158 158 158 164 164 164 165 165 165 163 163 163 164 164 164 166 166 166 165 165 165 160 160 160 167 167 167 158 158 158 158 158 158 167 167 167 164 164 164 160 160 160 168 168 168 167 167 167 167 167 167 168 168 168 169 169 169 166 166 166 164 164 164 170 170 170 170 170 170 164 164 164 167 167 167 171 171 171 167 167 167 169 169 169 167 167 167 171 171 171 170 170 170 169 169 169 172 172 172 171 171 171 170 170 170 173 173 173 166 166 166 173 173 173 174 174 174 166 166 166 175 175 175 174 174 174 173 173 173 173 173 173 176 176 176 175 175 175 171 171 171 172 172 172 177 177 177 177 177 177 172 172 172 178 178 178 177 177 177 178 178 178 179 179 179 179 179 179 180 180 180 177 177 177 177 177 177 181 181 181 171 171 171 171 171 171 181 181 181 182 182 182 170 170 170 171 171 171 182 182 182 182 182 182 183 183 183 170 170 170 170 170 170 183 183 183 184 184 184 173 173 173 170 170 170 184 184 184 184 184 184 185 185 185 173 173 173 185 185 185 186 186 186 173 173 173 176 176 176 173 173 173 186 186 186 186 186 186 187 187 187 176 176 176 188 188 188 187 187 187 186 186 186 186 186 186 189 189 189 188 188 188 188 188 188 189 189 189 190 190 190 190 190 190 191 191 191 188 188 188 190 190 190 192 192 192 191 191 191 193 193 193 180 180 180 194 194 194 194 194 194 195 195 195 196 196 196 196 196 196 197 197 197 194 194 194 197 197 197 198 198 198 194 194 194 194 194 194 198 198 198 193 193 193 199 199 199 193 193 193 198 198 198 198 198 198 200 200 200 199 199 199 200 200 200 201 201 201 199 199 199 201 201 201 202 202 202 199 199 199 202 202 202 203 203 203 199 199 199 184 184 184 199 199 199 203 203 203 203 203 203 204 204 204 184 184 184 204 204 204 205 205 205 184 184 184 206 206 206 205 205 205 204 204 204 207 207 207 206 206 206 204 204 204 204 204 204 208 208 208 207 207 207 208 208 208 209 209 209 207 207 207 210 210 210 209 209 209 208 208 208 208 208 208 211 211 211 210 210 210 211 211 211 208 208 208 212 212 212 211 211 211 212 212 212 213 213 213 213 213 213 214 214 214 211 211 211 214 214 214 213 213 213 215 215 215 215 215 215 216 216 216 214 214 214 217 217 217 214 214 214 216 216 216 218 218 218 217 217 217 216 216 216 216 216 216 219 219 219 218 218 218 220 220 220 218 218 218 219 219 219 219 219 219 221 221 221 220 220 220 220 220 220 221 221 221 222 222 222 223 223 223 212 212 212 224 224 224 223 223 223 224 224 224 225 225 225 225 225 225 226 226 226 223 223 223 226 226 226 225 225 225 227 227 227 228 228 228 223 223 223 226 226 226 227 227 227 229 229 229 226 226 226 230 230 230 228 228 228 226 226 226 231 231 231 226 226 226 229 229 229 226 226 226 231 231 231 230 230 230 229 229 229 232 232 232 231 231 231 231 231 231 233 233 233 230 230 230 231 231 231 232 232 232 234 234 234 235 235 235 233 233 233 231 231 231 236 236 236 237 237 237 235 235 235 234 234 234 238 238 238 231 231 231 238 238 238 234 234 234 239 239 239 238 238 238 239 239 239 240 240 240 231 231 231 241 241 241 235 235 235 235 235 235 241 241 241 236 236 236 241 241 241 231 231 231 238 238 238 242 242 242 236 236 236 241 241 241 241 241 241 243 243 243 242 242 242 243 243 243 241 241 241 244 244 244 238 238 238 244 244 244 241 241 241 244 244 244 245 245 245 243 243 243 244 244 244 246 246 246 245 245 245 240 240 240 247 247 247 238 238 238 244 244 244 238 238 238 247 247 247 247 247 247 240 240 240 248 248 248 248 248 248 249 249 249 247 247 247 247 247 247 249 249 249 250 250 250 250 250 250 251 251 251 247 247 247 247 247 247 251 251 251 252 252 252 252 252 252 250 250 250 253 253 253 247 247 247 254 254 254 244 244 244 246 246 246 244 244 244 254 254 254 252 252 252 254 254 254 247 247 247 254 254 254 255 255 255 246 246 246 256 256 256 255 255 255 254 254 254 254 254 254 257 257 257 256 256 256 257 257 257 254 254 254 258 258 258 252 252 252 258 258 258 254 254 254 258 258 258 259 259 259 257 257 257 252 252 252 253 253 253 260 260 260 261 261 261 259 259 259 252 252 252 252 252 252 260 260 260 261 261 261 259 259 259 261 261 261 262 262 262 262 262 262 263 263 263 259 259 259 264 264 264 259 259 259 265 265 265 266 266 266 265 265 265 263 263 263 265 265 265 266 266 266 264 264 264 263 263 263 262 262 262 267 267 267 264 264 264 266 266 266 268 268 268 268 268 268 269 269 269 264 264 264 270 270 270 269 269 269 268 268 268 266 266 266 263 263 263 271 271 271 267 267 267 271 271 271 263 263 263 268 268 268 266 266 266 272 272 272 271 271 271 272 272 272 266 266 266 268 268 268 273 273 273 270 270 270 273 273 273 274 274 274 270 270 270 275 275 275 274 274 274 273 273 273 272 272 272 276 276 276 268 268 268 273 273 273 268 268 268 276 276 276 272 272 272 271 271 271 277 277 277 277 277 277 276 276 276 272 272 272 278 278 278 277 277 277 271 271 271 271 271 271 267 267 267 278 278 278 276 276 276 277 277 277 279 279 279 277 277 277 278 278 278 280 280 280 279 279 279 281 281 281 276 276 276 280 280 280 282 282 282 277 277 277 281 281 281 279 279 279 282 282 282 276 276 276 283 283 283 273 273 273 283 283 283 276 276 276 281 281 281 273 273 273 284 284 284 275 275 275 284 284 284 273 273 273 283 283 283 284 284 284 285 285 285 275 275 275 286 286 286 285 285 285 284 284 284 282 282 282 287 287 287 281 281 281 281 281 281 287 287 287 288 288 288 284 284 284 289 289 289 286 286 286 289 289 289 222 222 222 286 286 286 290 290 290 281 281 281 288 288 288 281 281 281 290 290 290 283 283 283 288 288 288 291 291 291 290 290 290 290 290 290 291 291 291 292 292 292 293 293 293 283 283 283 290 290 290 283 283 283 293 293 293 284 284 284 292 292 292 294 294 294 290 290 290 290 290 290 294 294 294 293 293 293 292 292 292 295 295 295 294 294 294 294 294 294 295 295 295 296 296 296 292 292 292 288 288 288 297 297 297 297 297 297 296 296 296 292 292 292 288 288 288 282 282 282 297 297 297 296 296 296 298 298 298 294 294 294 293 293 293 294 294 294 298 298 298 298 298 298 296 296 296 299 299 299 297 297 297 299 299 299 296 296 296 298 298 298 300 300 300 293 293 293 300 300 300 301 301 301 293 293 293 284 284 284 293 293 293 301 301 301 302 302 302 300 300 300 298 298 298 302 302 302 301 301 301 300 300 300 301 301 301 303 303 303 284 284 284 303 303 303 301 301 301 302 302 302 303 303 303 289 289 289 284 284 284 304 304 304 289 289 289 303 303 303 302 302 302 304 304 304 303 303 303 222 222 222 289 289 289 304 304 304 304 304 304 305 305 305 222 222 222 306 306 306 305 305 305 304 304 304 298 298 298 307 307 307 302 302 302 307 307 307 298 298 298 299 299 299 299 299 299 308 308 308 307 307 307 307 307 307 308 308 308 309 309 309 309 309 309 299 299 299 297 297 297 302 302 302 307 307 307 310 310 310 309 309 309 310 310 310 307 307 307 310 310 310 311 311 311 302 302 302 304 304 304 302 302 302 311 311 311 312 312 312 310 310 310 309 309 309 311 311 311 310 310 310 312 312 312 309 309 309 313 313 313 312 312 312 312 312 312 314 314 314 311 311 311 313 313 313 309 309 309 315 315 315 297 297 297 315 315 315 309 309 309 314 314 314 316 316 316 311 311 311 317 317 317 311 311 311 316 316 316 311 311 311 317 317 317 304 304 304 306 306 306 304 304 304 317 317 317 317 317 317 318 318 318 306 306 306 319 319 319 318 318 318 317 317 317 320 320 320 319 319 319 317 317 317 316 316 316 321 321 321 317 317 317 317 317 317 322 322 322 320 320 320 321 321 321 322 322 322 317 317 317 322 322 322 210 210 210 320 320 320 323 323 323 210 210 210 324 324 324 325 325 325 324 324 324 321 321 321 324 324 324 325 325 325 323 323 323 325 325 325 326 326 326 323 323 323 325 325 325 321 321 321 327 327 327 328 328 328 326 326 326 325 325 325 327 327 327 329 329 329 325 325 325 329 329 329 327 327 327 314 314 314 328 328 328 325 325 325 330 330 330 330 330 330 325 325 325 329 329 329 330 330 330 331 331 331 328 328 328 329 329 329 314 314 314 332 332 332 333 333 333 331 331 331 330 330 330 332 332 332 334 334 334 329 329 329 333 333 333 330 330 330 335 335 335 335 335 335 336 336 336 333 333 333 337 337 337 336 336 336 335 335 335 329 329 329 338 338 338 330 330 330 335 335 335 330 330 330 338 338 338 338 338 338 329 329 329 334 334 334 337 337 337 335 335 335 339 339 339 339 339 339 340 340 340 337 337 337 341 341 341 340 340 340 339 339 339 339 339 339 342 342 342 341 341 341 338 338 338 343 343 343 335 335 335 339 339 339 335 335 335 343 343 343 342 342 342 339 339 339 344 344 344 343 343 343 344 344 344 339 339 339 343 343 343 338 338 338 345 345 345 334 334 334 345 345 345 338 338 338 344 344 344 343 343 343 346 346 346 345 345 345 346 346 346 343 343 343 345 345 345 334 334 334 347 347 347 347 347 347 348 348 348 345 345 345 349 349 349 347 347 347 334 334 334 345 345 345 348 348 348 350 350 350 349 349 349 334 334 334 332 332 332 350 350 350 346 346 346 345 345 345 332 332 332 313 313 313 349 349 349 350 350 350 351 351 351 346 346 346 346 346 346 351 351 351 352 352 352 352 352 352 344 344 344 346 346 346 344 344 344 352 352 352 353 353 353 349 349 349 313 313 313 315 315 315 354 354 354 344 344 344 353 353 353 344 344 344 354 354 354 342 342 342 355 355 355 342 342 342 354 354 354 356 356 356 355 355 355 354 354 354 353 353 353 357 357 357 354 354 354 354 354 354 357 357 357 358 358 358 354 354 354 359 359 359 356 356 356 359 359 359 354 354 354 358 358 358 359 359 359 360 360 360 356 356 356 361 361 361 360 360 360 359 359 359 358 358 358 362 362 362 359 359 359 359 359 359 362 362 362 363 363 363 361 361 361 359 359 359 364 364 364 364 364 364 359 359 359 363 363 363 364 364 364 139 139 139 361 361 361 363 363 363 365 365 365 364 364 364 139 139 139 364 364 364 137 137 137 366 366 366 363 363 363 358 358 358 364 364 364 365 365 365 366 366 366 358 358 358 353 353 353 366 366 366 366 366 366 137 137 137 364 364 364 353 353 353 350 350 350 366 366 366 350 350 350 349 349 349 366 366 366 367 367 367 137 137 137 366 366 366 137 137 137 367 367 367 119 119 119 368 368 368 119 119 119 367 367 367 369 369 369 366 366 366 349 349 349 366 366 366 369 369 369 367 367 367 349 349 349 315 315 315 369 369 369 367 367 367 370 370 370 368 368 368 370 370 370 367 367 367 369 369 369 371 371 371 368 368 368 370 370 370 372 372 372 371 371 371 370 370 370 369 369 369 373 373 373 370 370 370 370 370 370 373 373 373 374 374 374 370 370 370 375 375 375 372 372 372 375 375 375 370 370 370 374 374 374 376 376 376 372 372 372 375 375 375 374 374 374 377 377 377 375 375 375 378 378 378 374 374 374 369 369 369 375 375 375 377 377 377 378 378 378 369 369 369 315 315 315 378 378 378 375 375 375 379 379 379 376 376 376 378 378 378 379 379 379 375 375 375 379 379 379 380 380 380 376 376 376 378 378 378 381 381 381 379 379 379 379 379 379 381 381 381 315 315 315 382 382 382 380 380 380 379 379 379 315 315 315 383 383 383 379 379 379 382 382 382 379 379 379 383 383 383 315 315 315 384 384 384 383 383 383 383 383 383 384 384 384 297 297 297 383 383 383 385 385 385 382 382 382 386 386 386 382 382 382 385 385 385 385 385 385 387 387 387 386 386 386 388 388 388 387 387 387 385 385 385 297 297 297 389 389 389 383 383 383 385 385 385 390 390 390 388 388 388 390 390 390 391 391 391 388 388 388 392 392 392 391 391 391 390 390 390 385 385 385 383 383 383 393 393 393 389 389 389 393 393 393 383 383 383 393 393 393 390 390 390 385 385 385 394 394 394 389 389 389 297 297 297 393 393 393 389 389 389 394 394 394 297 297 297 395 395 395 394 394 394 394 394 394 395 395 395 396 396 396 396 396 396 297 297 297 282 282 282 394 394 394 397 397 397 393 393 393 390 390 390 393 393 393 397 397 397 396 396 396 398 398 398 394 394 394 397 397 397 394 394 394 398 398 398 396 396 396 399 399 399 398 398 398 282 282 282 400 400 400 396 396 396 398 398 398 399 399 399 400 400 400 397 397 397 401 401 401 390 390 390 390 390 390 401 401 401 392 392 392 401 401 401 402 402 402 392 392 392 403 403 403 402 402 402 401 401 401 398 398 398 404 404 404 397 397 397 401 401 401 397 397 397 404 404 404 400 400 400 405 405 405 398 398 398 404 404 404 398 398 398 405 405 405 405 405 405 406 406 406 404 404 404 401 401 401 407 407 407 403 403 403 404 404 404 407 407 407 401 401 401 407 407 407 408 408 408 403 403 403 406 406 406 409 409 409 404 404 404 407 407 407 404 404 404 409 409 409 410 410 410 408 408 408 407 407 407 409 409 409 411 411 411 407 407 407 407 407 407 412 412 412 410 410 410 411 411 411 412 412 412 407 407 407 412 412 412 413 413 413 410 410 410 414 414 414 415 415 415 411 411 411 416 416 416 413 413 413 415 415 415 415 415 415 414 414 414 416 416 416 414 414 414 417 417 417 416 416 416 414 414 414 411 411 411 418 418 418 419 419 419 417 417 417 414 414 414 418 418 418 420 420 420 414 414 414 420 420 420 418 418 418 406 406 406 420 420 420 406 406 406 421 421 421 414 414 414 422 422 422 419 419 419 422 422 422 414 414 414 420 420 420 422 422 422 423 423 423 419 419 419 424 424 424 423 423 423 422 422 422 422 422 422 425 425 425 424 424 424 425 425 425 426 426 426 424 424 424 427 427 427 425 425 425 422 422 422 428 428 428 426 426 426 429 429 429 429 429 429 430 430 430 428 428 428 429 429 429 431 431 431 430 430 430 431 431 431 429 429 429 432 432 432 432 432 432 433 433 433 431 431 431 431 431 431 433 433 433 434 434 434 434 434 434 435 435 435 431 431 431 413 413 413 435 435 435 434 434 434 434 434 434 436 436 436 413 413 413 434 434 434 437 437 437 436 436 436 437 437 437 434 434 434 438 438 438 438 438 438 439 439 439 437 437 437 437 437 437 439 439 439 440 440 440 440 440 440 441 441 441 437 437 437 77 77 77 441 441 441 440 440 440 440 440 440 442 442 442 77 77 77 80 80 80 442 442 442 440 440 440 440 440 440 443 443 443 80 80 80 443 443 443 106 106 106 80 80 80 106 106 106 443 443 443 102 102 102 102 102 102 443 443 443 444 444 444 102 102 102 444 444 444 445 445 445 102 102 102 445 445 445 446 446 446 102 102 102 446 446 446 447 447 447 102 102 102 447 447 447 448 448 448 102 102 102 448 448 448 449 449 449 449 449 449 450 450 450 102 102 102 451 451 451 438 438 438 452 452 452 452 452 452 453 453 453 451 451 451 454 454 454 453 453 453 452 452 452 452 452 452 455 455 455 454 454 454 455 455 455 456 456 456 454 454 454 457 457 457 454 454 454 456 456 456 456 456 456 455 455 455 458 458 458 456 456 456 459 459 459 457 457 457 460 460 460 456 456 456 458 458 458 459 459 459 456 456 456 460 460 460 458 458 458 461 461 461 460 460 460 460 460 460 462 462 462 459 459 459 460 460 460 461 461 461 463 463 463 460 460 460 463 463 463 464 464 464 465 465 465 462 462 462 460 460 460 464 464 464 466 466 466 460 460 460 460 460 460 467 467 467 465 465 465 468 468 468 465 465 465 467 467 467 467 467 467 469 469 469 468 468 468 470 470 470 469 469 469 467 467 467 466 466 466 471 471 471 460 460 460 467 467 467 460 460 460 471 471 471 471 471 471 466 466 466 472 472 472 472 472 472 473 473 473 471 471 471 474 474 474 471 471 471 473 473 473 471 471 471 474 474 474 467 467 467 473 473 473 475 475 475 474 474 474 475 475 475 476 476 476 474 474 474 467 467 467 477 477 477 470 470 470 477 477 477 467 467 467 474 474 474 478 478 478 470 470 470 477 477 477 253 253 253 478 478 478 477 477 477 477 477 477 479 479 479 253 253 253 260 260 260 479 479 479 477 477 477 474 474 474 480 480 480 477 477 477 477 477 477 480 480 480 260 260 260 480 480 480 474 474 474 476 476 476 476 476 476 481 481 481 480 480 480 481 481 481 482 482 482 480 480 480 480 480 480 483 483 483 260 260 260 483 483 483 480 480 480 482 482 482 482 482 482 484 484 484 483 483 483 484 484 484 261 261 261 483 483 483 485 485 485 261 261 261 486 486 486 486 486 486 487 487 487 485 485 485 486 486 486 488 488 488 487 487 487 262 262 262 485 485 485 487 487 487 487 487 487 488 488 488 489 489 489 487 487 487 490 490 490 262 262 262 490 490 490 487 487 487 489 489 489 262 262 262 490 490 490 491 491 491 267 267 267 262 262 262 491 491 491 489 489 489 492 492 492 490 490 490 491 491 491 490 490 490 492 492 492 489 489 489 493 493 493 492 492 492 492 492 492 493 493 493 494 494 494 491 491 491 495 495 495 267 267 267 495 495 495 491 491 491 492 492 492 278 278 278 267 267 267 495 495 495 496 496 496 278 278 278 495 495 495 497 497 497 492 492 492 494 494 494 494 494 494 498 498 498 497 497 497 497 497 497 498 498 498 499 499 499 499 499 499 426 426 426 500 500 500 500 500 500 497 497 497 499 499 499 497 497 497 500 500 500 427 427 427 501 501 501 492 492 492 497 497 497 492 492 492 501 501 501 495 495 495 502 502 502 497 497 497 427 427 427 497 497 497 502 502 502 501 501 501 495 495 495 503 503 503 496 496 496 503 503 503 495 495 495 501 501 501 280 280 280 496 496 496 503 503 503 501 501 501 504 504 504 503 503 503 504 504 504 501 501 501 502 502 502 503 503 503 505 505 505 280 280 280 506 506 506 505 505 505 503 503 503 503 503 503 504 504 504 506 506 506 280 280 280 506 506 506 507 507 507 504 504 504 508 508 508 506 506 506 507 507 507 509 509 509 280 280 280 510 510 510 508 508 508 504 504 504 504 504 504 511 511 511 510 510 510 502 502 502 511 511 511 504 504 504 512 512 512 510 510 510 511 511 511 512 512 512 511 511 511 513 513 513 513 513 513 511 511 511 502 502 502 513 513 513 509 509 509 512 512 512 502 502 502 514 514 514 513 513 513 427 427 427 514 514 514 502 502 502 509 509 509 515 515 515 280 280 280 515 515 515 282 282 282 280 280 280 282 282 282 515 515 515 400 400 400 516 516 516 517 517 517 509 509 509 515 515 515 517 517 517 516 516 516 509 509 509 518 518 518 516 516 516 516 516 516 519 519 519 515 515 515 519 519 519 520 520 520 515 515 515 400 400 400 520 520 520 519 519 519 519 519 519 421 421 421 400 400 400 421 421 421 519 519 519 420 420 420 521 521 521 516 516 516 518 518 518 519 519 519 516 516 516 521 521 521 521 521 521 420 420 420 519 519 519 518 518 518 514 514 514 521 521 521 420 420 420 521 521 521 422 422 422 427 427 427 422 422 422 521 521 521 514 514 514 522 522 522 521 521 521 521 521 521 522 522 522 427 427 427</p>
        </triangles>
      </mesh>
    </geometry>
  </library_geometries>
  <library_materials>
    <material id="e29ac99a156b4b4fa4219d6a81edb057" name="pbrmaterial">
      <instance_effect url="#c33de3089ae64a48bfcd1d395711f7be"/>
    </material>
  </library_materials>
  <library_visual_scenes>
    <visual_scene id="scene">
      <node id="node0" name="node0">
        <instance_geometry url="#8093bf21b1d54734ac47f007e36da809">
          <bind_material>
            <technique_common>
              <instance_material symbol="material0" target="#e29ac99a156b4b4fa4219d6a81edb057"/>
            </technique_common>
          </bind_material>
        </instance_geometry>
      </node>
    </visual_scene>
  </library_visual_scenes>
  <scene>
    <instance_visual_scene url="#scene"/>
  </scene>
</COLLADA>
